<svg width="345" height="24" viewBox="0 0 345 24" fill="none" xmlns="http://www.w3.org/2000/svg">
<g opacity="0.5">
<path opacity="0.7" fill-rule="evenodd" clip-rule="evenodd" d="M3.21289 8.55444V0.972656H3.51616V8.55444H3.21289Z" fill="#961E50"/>
<path opacity="0.4" fill-rule="evenodd" clip-rule="evenodd" d="M10.7947 5.52173V0.972656H11.0979V5.52173H10.7947Z" fill="#961E50"/>
<path opacity="0.4" fill-rule="evenodd" clip-rule="evenodd" d="M18.3765 5.52173V0.972656H18.6797V5.52173H18.3765Z" fill="#961E50"/>
<path opacity="0.4" fill-rule="evenodd" clip-rule="evenodd" d="M25.9583 5.52173V0.972656H26.2615V5.52173H25.9583Z" fill="#961E50"/>
<path opacity="0.4" fill-rule="evenodd" clip-rule="evenodd" d="M33.54 5.52173V0.972656H33.8433V5.52173H33.54Z" fill="#961E50"/>
<path opacity="0.4" fill-rule="evenodd" clip-rule="evenodd" d="M41.1218 5.52173V0.972656H41.4251V5.52173H41.1218Z" fill="#961E50"/>
<path opacity="0.4" fill-rule="evenodd" clip-rule="evenodd" d="M48.7036 5.52173V0.972656H49.0069V5.52173H48.7036Z" fill="#961E50"/>
<path opacity="0.4" fill-rule="evenodd" clip-rule="evenodd" d="M56.2854 5.52173V0.972656H56.5887V5.52173H56.2854Z" fill="#961E50"/>
<path opacity="0.4" fill-rule="evenodd" clip-rule="evenodd" d="M63.8672 5.52173V0.972656H64.1705V5.52173H63.8672Z" fill="#961E50"/>
<path opacity="0.7" fill-rule="evenodd" clip-rule="evenodd" d="M70.8425 8.55444V0.972656H71.1458V8.55444H70.8425Z" fill="#961E50"/>
<path opacity="0.4" fill-rule="evenodd" clip-rule="evenodd" d="M78.4243 5.52173V0.972656H78.7276V5.52173H78.4243Z" fill="#961E50"/>
<path opacity="0.4" fill-rule="evenodd" clip-rule="evenodd" d="M86.0061 5.52173V0.972656H86.3094V5.52173H86.0061Z" fill="#961E50"/>
<path opacity="0.4" fill-rule="evenodd" clip-rule="evenodd" d="M93.5879 5.52173V0.972656H93.8912V5.52173H93.5879Z" fill="#961E50"/>
<path opacity="0.4" fill-rule="evenodd" clip-rule="evenodd" d="M101.17 5.52173V0.972656H101.473V5.52173H101.17Z" fill="#961E50"/>
<path opacity="0.4" fill-rule="evenodd" clip-rule="evenodd" d="M108.751 5.52173V0.972656H109.055V5.52173H108.751Z" fill="#961E50"/>
<path opacity="0.4" fill-rule="evenodd" clip-rule="evenodd" d="M116.333 5.52173V0.972656H116.637V5.52173H116.333Z" fill="#961E50"/>
<path opacity="0.4" fill-rule="evenodd" clip-rule="evenodd" d="M123.915 5.52173V0.972656H124.218V5.52173H123.915Z" fill="#961E50"/>
<path opacity="0.4" fill-rule="evenodd" clip-rule="evenodd" d="M131.497 5.52173V0.972656H131.8V5.52173H131.497Z" fill="#961E50"/>
<path opacity="0.7" fill-rule="evenodd" clip-rule="evenodd" d="M138.472 8.55444V0.972656H138.775V8.55444H138.472Z" fill="#961E50"/>
<path opacity="0.4" fill-rule="evenodd" clip-rule="evenodd" d="M146.054 5.52173V0.972656H146.357V5.52173H146.054Z" fill="#961E50"/>
<path opacity="0.4" fill-rule="evenodd" clip-rule="evenodd" d="M153.635 5.52173V0.972656H153.939V5.52173H153.635Z" fill="#961E50"/>
<path opacity="0.4" fill-rule="evenodd" clip-rule="evenodd" d="M161.217 5.52173V0.972656H161.521V5.52173H161.217Z" fill="#961E50"/>
<path opacity="0.4" fill-rule="evenodd" clip-rule="evenodd" d="M168.799 5.52173V0.972656H169.102V5.52173H168.799Z" fill="#961E50"/>
<path opacity="0.4" fill-rule="evenodd" clip-rule="evenodd" d="M176.381 5.52173V0.972656H176.684V5.52173H176.381Z" fill="#961E50"/>
<path opacity="0.4" fill-rule="evenodd" clip-rule="evenodd" d="M183.963 5.52173V0.972656H184.266V5.52173H183.963Z" fill="#961E50"/>
<path opacity="0.4" fill-rule="evenodd" clip-rule="evenodd" d="M191.544 5.52173V0.972656H191.848V5.52173H191.544Z" fill="#961E50"/>
<path opacity="0.4" fill-rule="evenodd" clip-rule="evenodd" d="M199.126 5.52173V0.972656H199.429V5.52173H199.126Z" fill="#961E50"/>
<path opacity="0.7" fill-rule="evenodd" clip-rule="evenodd" d="M206.102 8.55444V0.972656H206.405V8.55444H206.102Z" fill="#961E50"/>
<path opacity="0.4" fill-rule="evenodd" clip-rule="evenodd" d="M213.683 5.52173V0.972656H213.987V5.52173H213.683Z" fill="#961E50"/>
<path opacity="0.4" fill-rule="evenodd" clip-rule="evenodd" d="M221.265 5.52173V0.972656H221.568V5.52173H221.265Z" fill="#961E50"/>
<path opacity="0.4" fill-rule="evenodd" clip-rule="evenodd" d="M228.847 5.52173V0.972656H229.15V5.52173H228.847Z" fill="#961E50"/>
<path opacity="0.4" fill-rule="evenodd" clip-rule="evenodd" d="M236.429 5.52173V0.972656H236.732V5.52173H236.429Z" fill="#961E50"/>
<path opacity="0.4" fill-rule="evenodd" clip-rule="evenodd" d="M244.01 5.52173V0.972656H244.314V5.52173H244.01Z" fill="#961E50"/>
<path opacity="0.4" fill-rule="evenodd" clip-rule="evenodd" d="M251.592 5.52173V0.972656H251.896V5.52173H251.592Z" fill="#961E50"/>
<path opacity="0.4" fill-rule="evenodd" clip-rule="evenodd" d="M259.174 5.52173V0.972656H259.477V5.52173H259.174Z" fill="#961E50"/>
<path opacity="0.4" fill-rule="evenodd" clip-rule="evenodd" d="M266.756 5.52173V0.972656H267.059V5.52173H266.756Z" fill="#961E50"/>
<path opacity="0.7" fill-rule="evenodd" clip-rule="evenodd" d="M273.731 8.55444V0.972656H274.034V8.55444H273.731Z" fill="#961E50"/>
<path opacity="0.7" fill-rule="evenodd" clip-rule="evenodd" d="M340.754 8.55444V0.972656H341.057V8.55444H340.754Z" fill="#961E50"/>
<path opacity="0.4" fill-rule="evenodd" clip-rule="evenodd" d="M281.313 5.52173V0.972656H281.616V5.52173H281.313Z" fill="#961E50"/>
<path opacity="0.4" fill-rule="evenodd" clip-rule="evenodd" d="M288.895 5.52173V0.972656H289.198V5.52173H288.895Z" fill="#961E50"/>
<path opacity="0.4" fill-rule="evenodd" clip-rule="evenodd" d="M296.476 5.52173V0.972656H296.78V5.52173H296.476Z" fill="#961E50"/>
<path opacity="0.4" fill-rule="evenodd" clip-rule="evenodd" d="M304.058 5.52173V0.972656H304.361V5.52173H304.058Z" fill="#961E50"/>
<path opacity="0.4" fill-rule="evenodd" clip-rule="evenodd" d="M311.64 5.52173V0.972656H311.943V5.52173H311.64Z" fill="#961E50"/>
<path opacity="0.4" fill-rule="evenodd" clip-rule="evenodd" d="M319.222 5.52173V0.972656H319.525V5.52173H319.222Z" fill="#961E50"/>
<path opacity="0.4" fill-rule="evenodd" clip-rule="evenodd" d="M326.803 5.52173V0.972656H327.107V5.52173H326.803Z" fill="#961E50"/>
<path opacity="0.4" fill-rule="evenodd" clip-rule="evenodd" d="M334.385 5.52173V0.972656H334.689V5.52173H334.385Z" fill="#961E50"/>
</g>
<path d="M8.49009 19.073C7.72476 20.053 6.72609 20.543 5.49409 20.543C4.26209 20.543 3.26343 20.0577 2.49809 19.087C1.74209 18.107 1.36409 16.903 1.36409 15.475C1.36409 14.0657 1.74676 12.871 2.51209 11.891C3.28676 10.9017 4.29009 10.407 5.52209 10.407C6.75409 10.407 7.74809 10.897 8.50409 11.877C9.26009 12.8477 9.63809 14.047 9.63809 15.475C9.63809 16.8843 9.25543 18.0837 8.49009 19.073ZM3.35209 18.345C3.91209 19.1383 4.63543 19.535 5.52209 19.535C6.40876 19.535 7.12276 19.143 7.66409 18.359C8.21476 17.5657 8.49009 16.6043 8.49009 15.475C8.49009 14.3643 8.21009 13.4123 7.65009 12.619C7.09943 11.8163 6.38076 11.415 5.49409 11.415C4.60743 11.415 3.88876 11.8117 3.33809 12.605C2.78743 13.389 2.51209 14.3457 2.51209 15.475C2.51209 16.5857 2.79209 17.5423 3.35209 18.345Z" fill="#DBB1C2"/>
<path d="M69.9301 20.375V11.653L68.0821 12.227L67.8161 11.331L70.2101 10.505H71.0221V20.375H69.9301Z" fill="#DBB1C2"/>
<path d="M135.241 20.375V19.521L138.797 16.385C139.562 15.713 140.094 15.153 140.393 14.705C140.691 14.257 140.841 13.7903 140.841 13.305C140.841 12.745 140.649 12.2923 140.267 11.947C139.884 11.6017 139.417 11.429 138.867 11.429C138.335 11.429 137.863 11.5643 137.453 11.835C137.051 12.1057 136.645 12.5303 136.235 13.109L135.423 12.521C135.899 11.8117 136.403 11.289 136.935 10.953C137.467 10.6077 138.139 10.435 138.951 10.435C139.828 10.435 140.551 10.701 141.121 11.233C141.699 11.7557 141.989 12.423 141.989 13.235C141.989 13.907 141.807 14.5043 141.443 15.027C141.079 15.5497 140.435 16.2217 139.511 17.043L136.893 19.367H142.087V20.375H135.241Z" fill="#DBB1C2"/>
<path d="M206.753 20.543C205.213 20.543 203.995 19.9597 203.099 18.793L203.897 18.079C204.69 19.0497 205.647 19.535 206.767 19.535C207.374 19.535 207.882 19.3577 208.293 19.003C208.704 18.6483 208.909 18.1817 208.909 17.603C208.909 17.0057 208.657 16.5437 208.153 16.217C207.649 15.881 206.986 15.713 206.165 15.713H205.535L205.311 15.055L208.405 11.569H203.617V10.575H209.875V11.387L206.795 14.803C207.728 14.8777 208.498 15.1483 209.105 15.615C209.721 16.0723 210.029 16.7303 210.029 17.589C210.029 18.4477 209.712 19.157 209.077 19.717C208.452 20.2677 207.677 20.543 206.753 20.543Z" fill="#DBB1C2"/>
<path d="M274.87 20.375V18.051H269.704L269.424 17.253L274.968 10.505H275.934V17.127H277.46V18.051H275.934V20.375H274.87ZM270.754 17.127H274.87V12.073L270.754 17.127Z" fill="#DBB1C2"/>
<path d="M331.242 20.543C329.945 20.543 328.778 20.025 327.742 18.989L328.47 18.191C329.394 19.087 330.323 19.535 331.256 19.535C331.956 19.535 332.525 19.3297 332.964 18.919C333.403 18.5083 333.622 17.981 333.622 17.337C333.622 16.7303 333.393 16.2357 332.936 15.853C332.488 15.4703 331.905 15.279 331.186 15.279C330.514 15.279 329.828 15.4657 329.128 15.839L328.386 15.349L328.666 10.575H334.308V11.597H329.632L329.422 14.733C330.085 14.4437 330.729 14.299 331.354 14.299C332.334 14.299 333.141 14.5743 333.776 15.125C334.42 15.6663 334.742 16.399 334.742 17.323C334.742 18.275 334.415 19.0497 333.762 19.647C333.109 20.2443 332.269 20.543 331.242 20.543ZM339.534 18.835V15.951H336.622V14.943H339.534V12.059H340.57V14.943H343.482V15.951H340.57V18.835H339.534Z" fill="#DBB1C2"/>
</svg>
