<svg width="1225" height="508" viewBox="0 0 1225 508" fill="none" xmlns="http://www.w3.org/2000/svg">
<g opacity="0.5">
<path opacity="0.7" fill-rule="evenodd" clip-rule="evenodd" d="M34 6L59 6L59 7L34 7L34 6Z" fill="#961E50"/>
<path opacity="0.4" fill-rule="evenodd" clip-rule="evenodd" d="M44 29L59 29L59 30L44 30L44 29Z" fill="#961E50"/>
<path opacity="0.4" fill-rule="evenodd" clip-rule="evenodd" d="M44 54L59 54L59 55L44 55L44 54Z" fill="#961E50"/>
<path opacity="0.4" fill-rule="evenodd" clip-rule="evenodd" d="M44 79L59 79L59 80L44 80L44 79Z" fill="#961E50"/>
<path opacity="0.4" fill-rule="evenodd" clip-rule="evenodd" d="M44 104L59 104L59 105L44 105L44 104Z" fill="#961E50"/>
<path opacity="0.4" fill-rule="evenodd" clip-rule="evenodd" d="M44 129L59 129L59 130L44 130L44 129Z" fill="#961E50"/>
<path opacity="0.4" fill-rule="evenodd" clip-rule="evenodd" d="M44 154L59 154L59 155L44 155L44 154Z" fill="#961E50"/>
<path opacity="0.4" fill-rule="evenodd" clip-rule="evenodd" d="M44 179L59 179L59 180L44 180L44 179Z" fill="#961E50"/>
<path opacity="0.7" fill-rule="evenodd" clip-rule="evenodd" d="M34 202L59 202L59 203L34 203L34 202Z" fill="#961E50"/>
<path opacity="0.7" fill-rule="evenodd" clip-rule="evenodd" d="M34 423L59 423L59 424L34 424L34 423Z" fill="#961E50"/>
<path opacity="0.4" fill-rule="evenodd" clip-rule="evenodd" d="M44 227L59 227L59 228L44 228L44 227Z" fill="#961E50"/>
<path opacity="0.4" fill-rule="evenodd" clip-rule="evenodd" d="M44 252L59 252L59 253L44 253L44 252Z" fill="#961E50"/>
<path opacity="0.4" fill-rule="evenodd" clip-rule="evenodd" d="M44 277L59 277L59 278L44 278L44 277Z" fill="#961E50"/>
<path opacity="0.4" fill-rule="evenodd" clip-rule="evenodd" d="M44 302L59 302L59 303L44 303L44 302Z" fill="#961E50"/>
<path opacity="0.4" fill-rule="evenodd" clip-rule="evenodd" d="M44 327L59 327L59 328L44 328L44 327Z" fill="#961E50"/>
<path opacity="0.4" fill-rule="evenodd" clip-rule="evenodd" d="M44 352L59 352L59 353L44 353L44 352Z" fill="#961E50"/>
<path opacity="0.4" fill-rule="evenodd" clip-rule="evenodd" d="M44 377L59 377L59 378L44 378L44 377Z" fill="#961E50"/>
<path opacity="0.4" fill-rule="evenodd" clip-rule="evenodd" d="M44 402L59 402L59 403L44 403L44 402Z" fill="#961E50"/>
</g>
<path opacity="0.5" fill-rule="evenodd" clip-rule="evenodd" d="M68 424L68 6L69 6L69 424L68 424Z" fill="#961E50"/>
<path d="M26.4901 426.698C25.7248 427.678 24.7261 428.168 23.4941 428.168C22.2621 428.168 21.2634 427.683 20.4981 426.712C19.7421 425.732 19.3641 424.528 19.3641 423.1C19.3641 421.691 19.7468 420.496 20.5121 419.516C21.2868 418.527 22.2901 418.032 23.5221 418.032C24.7541 418.032 25.7481 418.522 26.5041 419.502C27.2601 420.473 27.6381 421.672 27.6381 423.1C27.6381 424.509 27.2554 425.709 26.4901 426.698ZM21.3521 425.97C21.9121 426.763 22.6354 427.16 23.5221 427.16C24.4088 427.16 25.1228 426.768 25.6641 425.984C26.2148 425.191 26.4901 424.229 26.4901 423.1C26.4901 421.989 26.2101 421.037 25.6501 420.244C25.0994 419.441 24.3808 419.04 23.4941 419.04C22.6074 419.04 21.8888 419.437 21.3381 420.23C20.7874 421.014 20.5121 421.971 20.5121 423.1C20.5121 424.211 20.7921 425.167 21.3521 425.97Z" fill="#DBB1C2"/>
<path d="M22.9972 206V197.278L21.1492 197.852L20.8832 196.956L23.2772 196.13H24.0892V206H22.9972Z" fill="#DBB1C2"/>
<path d="M2.58608 10V1.278L0.738078 1.852L0.472078 0.956L2.86608 0.129999H3.67808V10H2.58608ZM5.90966 11.708L5.74166 11.218C6.36699 10.9847 6.67966 10.6253 6.67966 10.14V10H6.17566V8.53H7.46366V9.79C7.46366 10.35 7.33766 10.7793 7.08566 11.078C6.84299 11.3767 6.45099 11.5867 5.90966 11.708ZM15.5713 9.37C14.8713 9.88333 13.994 10.14 12.9393 10.14C11.8846 10.14 11.0073 9.87867 10.3073 9.356C9.6073 8.83333 9.2573 8.16133 9.2573 7.34C9.2573 6.78 9.4393 6.29467 9.8033 5.884C10.1673 5.47333 10.6573 5.156 11.2733 4.932C10.1533 4.41867 9.5933 3.658 9.5933 2.65C9.5933 1.91267 9.91996 1.29667 10.5733 0.802C11.236 0.307333 12.0246 0.0599995 12.9393 0.0599995C13.854 0.0599995 14.638 0.307333 15.2913 0.802C15.954 1.29667 16.2853 1.922 16.2853 2.678C16.2853 3.66733 15.7253 4.41867 14.6053 4.932C15.9493 5.436 16.6213 6.24333 16.6213 7.354C16.6213 8.17533 16.2713 8.84733 15.5713 9.37ZM11.3433 4.036C11.7726 4.372 12.3046 4.54 12.9393 4.54C13.574 4.54 14.106 4.372 14.5353 4.036C14.9646 3.7 15.1793 3.26133 15.1793 2.72C15.1793 2.23467 14.9646 1.83333 14.5353 1.516C14.106 1.18933 13.574 1.026 12.9393 1.026C12.2953 1.026 11.7586 1.18933 11.3293 1.516C10.9093 1.83333 10.6993 2.244 10.6993 2.748C10.6993 3.27067 10.914 3.7 11.3433 4.036ZM11.0633 8.642C11.53 8.99667 12.1553 9.174 12.9393 9.174C13.7233 9.174 14.344 8.99667 14.8013 8.642C15.268 8.28733 15.5013 7.844 15.5013 7.312C15.5013 6.77067 15.254 6.32733 14.7593 5.982C14.2646 5.62733 13.658 5.45 12.9393 5.45C12.2113 5.45 11.6 5.62733 11.1053 5.982C10.62 6.33667 10.3773 6.78933 10.3773 7.34C10.3773 7.85333 10.606 8.28733 11.0633 8.642ZM21.5897 10.168C20.2923 10.168 19.1257 9.65 18.0897 8.614L18.8177 7.816C19.7417 8.712 20.6703 9.16 21.6037 9.16C22.3037 9.16 22.873 8.95467 23.3117 8.544C23.7503 8.13333 23.9697 7.606 23.9697 6.962C23.9697 6.35533 23.741 5.86067 23.2837 5.478C22.8357 5.09533 22.2523 4.904 21.5337 4.904C20.8617 4.904 20.1757 5.09067 19.4757 5.464L18.7337 4.974L19.0137 0.199999H24.6557V1.222H19.9797L19.7697 4.358C20.4323 4.06867 21.0763 3.924 21.7017 3.924C22.6817 3.924 23.489 4.19933 24.1237 4.75C24.7677 5.29133 25.0897 6.024 25.0897 6.948C25.0897 7.9 24.763 8.67467 24.1097 9.272C23.4563 9.86933 22.6163 10.168 21.5897 10.168Z" fill="#DBB1C2"/>
<g opacity="0.5">
<path opacity="0.7" fill-rule="evenodd" clip-rule="evenodd" d="M98 489V464H99V489H98Z" fill="#961E50"/>
<path opacity="0.4" fill-rule="evenodd" clip-rule="evenodd" d="M123 479V464H124V479H123Z" fill="#961E50"/>
<path opacity="0.4" fill-rule="evenodd" clip-rule="evenodd" d="M148 479V464H149V479H148Z" fill="#961E50"/>
<path opacity="0.4" fill-rule="evenodd" clip-rule="evenodd" d="M173 479V464H174V479H173Z" fill="#961E50"/>
<path opacity="0.4" fill-rule="evenodd" clip-rule="evenodd" d="M198 479V464H199V479H198Z" fill="#961E50"/>
<path opacity="0.4" fill-rule="evenodd" clip-rule="evenodd" d="M223 479V464H224V479H223Z" fill="#961E50"/>
<path opacity="0.4" fill-rule="evenodd" clip-rule="evenodd" d="M248 479V464H249V479H248Z" fill="#961E50"/>
<path opacity="0.4" fill-rule="evenodd" clip-rule="evenodd" d="M273 479V464H274V479H273Z" fill="#961E50"/>
<path opacity="0.4" fill-rule="evenodd" clip-rule="evenodd" d="M298 479V464H299V479H298Z" fill="#961E50"/>
<path opacity="0.7" fill-rule="evenodd" clip-rule="evenodd" d="M321 489V464H322V489H321Z" fill="#961E50"/>
<path opacity="0.4" fill-rule="evenodd" clip-rule="evenodd" d="M346 479V464H347V479H346Z" fill="#961E50"/>
<path opacity="0.4" fill-rule="evenodd" clip-rule="evenodd" d="M371 479V464H372V479H371Z" fill="#961E50"/>
<path opacity="0.4" fill-rule="evenodd" clip-rule="evenodd" d="M396 479V464H397V479H396Z" fill="#961E50"/>
<path opacity="0.4" fill-rule="evenodd" clip-rule="evenodd" d="M421 479V464H422V479H421Z" fill="#961E50"/>
<path opacity="0.4" fill-rule="evenodd" clip-rule="evenodd" d="M446 479V464H447V479H446Z" fill="#961E50"/>
<path opacity="0.4" fill-rule="evenodd" clip-rule="evenodd" d="M471 479V464H472V479H471Z" fill="#961E50"/>
<path opacity="0.4" fill-rule="evenodd" clip-rule="evenodd" d="M496 479V464H497V479H496Z" fill="#961E50"/>
<path opacity="0.4" fill-rule="evenodd" clip-rule="evenodd" d="M521 479V464H522V479H521Z" fill="#961E50"/>
<path opacity="0.7" fill-rule="evenodd" clip-rule="evenodd" d="M544 489V464H545V489H544Z" fill="#961E50"/>
<path opacity="0.4" fill-rule="evenodd" clip-rule="evenodd" d="M569 479V464H570V479H569Z" fill="#961E50"/>
<path opacity="0.4" fill-rule="evenodd" clip-rule="evenodd" d="M594 479V464H595V479H594Z" fill="#961E50"/>
<path opacity="0.4" fill-rule="evenodd" clip-rule="evenodd" d="M619 479V464H620V479H619Z" fill="#961E50"/>
<path opacity="0.4" fill-rule="evenodd" clip-rule="evenodd" d="M644 479V464H645V479H644Z" fill="#961E50"/>
<path opacity="0.4" fill-rule="evenodd" clip-rule="evenodd" d="M669 479V464H670V479H669Z" fill="#961E50"/>
<path opacity="0.4" fill-rule="evenodd" clip-rule="evenodd" d="M694 479V464H695V479H694Z" fill="#961E50"/>
<path opacity="0.4" fill-rule="evenodd" clip-rule="evenodd" d="M719 479V464H720V479H719Z" fill="#961E50"/>
<path opacity="0.4" fill-rule="evenodd" clip-rule="evenodd" d="M744 479V464H745V479H744Z" fill="#961E50"/>
<path opacity="0.7" fill-rule="evenodd" clip-rule="evenodd" d="M767 489V464H768V489H767Z" fill="#961E50"/>
<path opacity="0.4" fill-rule="evenodd" clip-rule="evenodd" d="M792 479V464H793V479H792Z" fill="#961E50"/>
<path opacity="0.4" fill-rule="evenodd" clip-rule="evenodd" d="M817 479V464H818V479H817Z" fill="#961E50"/>
<path opacity="0.4" fill-rule="evenodd" clip-rule="evenodd" d="M842 479V464H843V479H842Z" fill="#961E50"/>
<path opacity="0.4" fill-rule="evenodd" clip-rule="evenodd" d="M867 479V464H868V479H867Z" fill="#961E50"/>
<path opacity="0.4" fill-rule="evenodd" clip-rule="evenodd" d="M892 479V464H893V479H892Z" fill="#961E50"/>
<path opacity="0.4" fill-rule="evenodd" clip-rule="evenodd" d="M917 479V464H918V479H917Z" fill="#961E50"/>
<path opacity="0.4" fill-rule="evenodd" clip-rule="evenodd" d="M942 479V464H943V479H942Z" fill="#961E50"/>
<path opacity="0.4" fill-rule="evenodd" clip-rule="evenodd" d="M967 479V464H968V479H967Z" fill="#961E50"/>
<path opacity="0.7" fill-rule="evenodd" clip-rule="evenodd" d="M990 489V464H991V489H990Z" fill="#961E50"/>
<path opacity="0.7" fill-rule="evenodd" clip-rule="evenodd" d="M1211 489V464H1212V489H1211Z" fill="#961E50"/>
<path opacity="0.4" fill-rule="evenodd" clip-rule="evenodd" d="M1015 479V464H1016V479H1015Z" fill="#961E50"/>
<path opacity="0.4" fill-rule="evenodd" clip-rule="evenodd" d="M1040 479V464H1041V479H1040Z" fill="#961E50"/>
<path opacity="0.4" fill-rule="evenodd" clip-rule="evenodd" d="M1065 479V464H1066V479H1065Z" fill="#961E50"/>
<path opacity="0.4" fill-rule="evenodd" clip-rule="evenodd" d="M1090 479V464H1091V479H1090Z" fill="#961E50"/>
<path opacity="0.4" fill-rule="evenodd" clip-rule="evenodd" d="M1115 479V464H1116V479H1115Z" fill="#961E50"/>
<path opacity="0.4" fill-rule="evenodd" clip-rule="evenodd" d="M1140 479V464H1141V479H1140Z" fill="#961E50"/>
<path opacity="0.4" fill-rule="evenodd" clip-rule="evenodd" d="M1165 479V464H1166V479H1165Z" fill="#961E50"/>
<path opacity="0.4" fill-rule="evenodd" clip-rule="evenodd" d="M1190 479V464H1191V479H1190Z" fill="#961E50"/>
</g>
<path opacity="0.5" fill-rule="evenodd" clip-rule="evenodd" d="M1212 454L98 454L98 453L1212 453L1212 454Z" fill="#961E50"/>
<path d="M102.49 503.698C101.725 504.678 100.726 505.168 99.4941 505.168C98.2621 505.168 97.2634 504.683 96.4981 503.712C95.7421 502.732 95.3641 501.528 95.3641 500.1C95.3641 498.691 95.7468 497.496 96.5121 496.516C97.2868 495.527 98.2901 495.032 99.5221 495.032C100.754 495.032 101.748 495.522 102.504 496.502C103.26 497.473 103.638 498.672 103.638 500.1C103.638 501.509 103.255 502.709 102.49 503.698ZM97.3521 502.97C97.9121 503.763 98.6354 504.16 99.5221 504.16C100.409 504.16 101.123 503.768 101.664 502.984C102.215 502.191 102.49 501.229 102.49 500.1C102.49 498.989 102.21 498.037 101.65 497.244C101.099 496.441 100.381 496.04 99.4941 496.04C98.6074 496.04 97.8888 496.437 97.3381 497.23C96.7874 498.014 96.5121 498.971 96.5121 500.1C96.5121 501.211 96.7921 502.167 97.3521 502.97Z" fill="#DBB1C2"/>
<path d="M320.997 505V496.278L319.149 496.852L318.883 495.956L321.277 495.13H322.089V505H320.997Z" fill="#DBB1C2"/>
<path d="M540.982 505V504.146L544.538 501.01C545.303 500.338 545.835 499.778 546.134 499.33C546.432 498.882 546.582 498.415 546.582 497.93C546.582 497.37 546.39 496.917 546.008 496.572C545.625 496.227 545.158 496.054 544.608 496.054C544.076 496.054 543.604 496.189 543.194 496.46C542.792 496.731 542.386 497.155 541.976 497.734L541.164 497.146C541.64 496.437 542.144 495.914 542.676 495.578C543.208 495.233 543.88 495.06 544.692 495.06C545.569 495.06 546.292 495.326 546.862 495.858C547.44 496.381 547.73 497.048 547.73 497.86C547.73 498.532 547.548 499.129 547.184 499.652C546.82 500.175 546.176 500.847 545.252 501.668L542.634 503.992H547.828V505H540.982Z" fill="#DBB1C2"/>
<path d="M768.561 505.168C767.021 505.168 765.803 504.585 764.907 503.418L765.705 502.704C766.498 503.675 767.455 504.16 768.575 504.16C769.182 504.16 769.69 503.983 770.101 503.628C770.512 503.273 770.717 502.807 770.717 502.228C770.717 501.631 770.465 501.169 769.961 500.842C769.457 500.506 768.794 500.338 767.973 500.338H767.343L767.119 499.68L770.213 496.194H765.425V495.2H771.683V496.012L768.603 499.428C769.536 499.503 770.306 499.773 770.913 500.24C771.529 500.697 771.837 501.355 771.837 502.214C771.837 503.073 771.52 503.782 770.885 504.342C770.26 504.893 769.485 505.168 768.561 505.168Z" fill="#DBB1C2"/>
<path d="M992.352 505V502.676H987.186L986.906 501.878L992.45 495.13H993.416V501.752H994.942V502.676H993.416V505H992.352ZM988.236 501.752H992.352V496.698L988.236 501.752Z" fill="#DBB1C2"/>
<path d="M1211.24 505.168C1209.94 505.168 1208.78 504.65 1207.74 503.614L1208.47 502.816C1209.39 503.712 1210.32 504.16 1211.26 504.16C1211.96 504.16 1212.53 503.955 1212.96 503.544C1213.4 503.133 1213.62 502.606 1213.62 501.962C1213.62 501.355 1213.39 500.861 1212.94 500.478C1212.49 500.095 1211.9 499.904 1211.19 499.904C1210.51 499.904 1209.83 500.091 1209.13 500.464L1208.39 499.974L1208.67 495.2H1214.31V496.222H1209.63L1209.42 499.358C1210.08 499.069 1210.73 498.924 1211.35 498.924C1212.33 498.924 1213.14 499.199 1213.78 499.75C1214.42 500.291 1214.74 501.024 1214.74 501.948C1214.74 502.9 1214.42 503.675 1213.76 504.272C1213.11 504.869 1212.27 505.168 1211.24 505.168ZM1219.53 503.46V500.576H1216.62V499.568H1219.53V496.684H1220.57V499.568H1223.48V500.576H1220.57V503.46H1219.53Z" fill="#DBB1C2"/>
</svg>
