<svg width="262" height="161" viewBox="0 0 262 161" fill="none" xmlns="http://www.w3.org/2000/svg">
<mask id="mask0" mask-type="alpha" maskUnits="userSpaceOnUse" x="60" y="0" width="142" height="112">
<path fill-rule="evenodd" clip-rule="evenodd" d="M130.85 0L60 111.654H201.701L130.85 0ZM130.85 33.2479L92.3488 93.923H169.352L130.85 33.2479Z" fill="#FFC700"/>
</mask>
<g mask="url(#mask0)">
<path fill-rule="evenodd" clip-rule="evenodd" d="M130.85 0L60 111.654H201.701L130.85 0ZM130.85 33.2479L92.3488 93.923H169.352L130.85 33.2479Z" fill="#FFC700"/>
<path d="M60 -4.4043H158.165V75.6374H60V-4.4043Z" fill="#FC31A0"/>
<g filter="url(#filter0_d)">
<path d="M106.479 32.3404L129.906 42.5456L143.782 18.4222L128.916 -1.9668L106.479 32.3404Z" fill="#D52888"/>
</g>
<path d="M92.2363 37.0647L116.548 66.2796L133.438 41.8206L101.193 27.7793L92.2363 37.0647Z" fill="#961E50"/>
<path d="M102.066 -2.23808L126.378 26.9768L143.269 2.51782L111.023 -11.5234L102.066 -2.23808Z" fill="#A30E4C"/>
<path d="M188.39 41.9388L135.684 42.5818L134.087 42.8224L129.643 35.1092L142.571 7.47054L188.39 41.9388Z" fill="#5B8E2F"/>
<g filter="url(#filter1_d)">
<path d="M58.4395 66.6436H131.23V114.769H58.4395V66.6436Z" fill="#FF7027"/>
</g>
<path d="M65.5751 54.1174L97.3132 118.55L53.3081 120.23L65.5751 54.1174Z" fill="#FF5400"/>
<g filter="url(#filter2_d)">
<path d="M94.6914 61.9361L111.435 68.4854L99.2054 79.096L94.6914 61.9361Z" fill="#E75100"/>
</g>
<g filter="url(#filter3_d)">
<path d="M92.4665 93.8361L126.821 110.082L111.24 130.638L81.1331 113.579L92.4665 93.8361Z" fill="#B31112"/>
</g>
<path d="M130.85 49.3672L226.565 110.152L201.439 149.205L105.724 88.4202L130.85 49.3672Z" fill="#329CE0"/>
<g filter="url(#filter4_d)">
<path d="M107.516 70.3291L191.241 123.5L176.115 147.009L92.3902 93.8383L107.516 70.3291Z" fill="#00557E"/>
</g>
<g filter="url(#filter5_d)">
<path d="M151.617 -0.475586L237.205 51.5477L202.269 108.28L116.681 56.2566L151.617 -0.475586Z" fill="#8BD83D"/>
</g>
<g opacity="0.5" filter="url(#filter6_d)">
<path d="M60 72.3408L78.2882 97.3202L53.1457 115.49L34.8574 90.5104L60 72.3408Z" fill="#B01415"/>
</g>
<g filter="url(#filter7_d)">
<path d="M214.198 40.2376L117.94 65.4778L170.569 3.79036L214.198 40.2376Z" fill="#65AC28"/>
</g>
<g filter="url(#filter8_d)">
<path d="M221.742 113.342L152.892 87.7607L169.892 31.4761L182.463 40.2063L221.742 113.342Z" fill="#88D838"/>
</g>
<g filter="url(#filter9_d)">
<path d="M155.531 105.285L182.814 86.7183L185.695 120.338L155.531 105.285Z" fill="#218ACD"/>
</g>
<g opacity="0.4" filter="url(#filter10_d)">
<path d="M115.941 120.536L126.101 89.2701L149.074 114.121L115.941 120.536Z" fill="#3197D9"/>
</g>
<g filter="url(#filter11_d)">
<path d="M117.178 92.9833L143.15 73.3695L148.291 98.0166L117.178 92.9833Z" fill="#F16B24"/>
</g>
<path d="M126.713 56.6779L134.566 79.5361L151.456 55.0771L135.67 47.3926L126.713 56.6779Z" fill="#B11255"/>
<g filter="url(#filter12_d)">
<path d="M191.069 77.5849L159.925 83.6549L181.707 61.7726L191.069 77.5849Z" fill="#5FA324"/>
</g>
</g>
<path d="M170.544 133.657C173.221 133.657 175.333 134.377 176.882 135.817C178.456 137.256 179.244 139.242 179.244 141.773C179.244 144.28 178.456 146.253 176.882 147.693C175.333 149.107 173.221 149.815 170.544 149.815H161.254V159.606C161.254 159.928 161.097 160.09 160.782 160.09H159.955C159.614 160.09 159.443 159.928 159.443 159.606V134.141C159.443 133.819 159.614 133.657 159.955 133.657H170.544ZM170.387 148.214C172.539 148.214 174.231 147.643 175.465 146.501C176.724 145.36 177.354 143.784 177.354 141.773C177.354 139.738 176.724 138.15 175.465 137.008C174.231 135.841 172.539 135.258 170.387 135.258H161.254V148.214H170.387Z" fill="#202020"/>
<path d="M195.586 133.657C198.079 133.657 200.034 134.315 201.451 135.63C202.869 136.921 203.577 138.745 203.577 141.103C203.577 143.213 202.96 144.9 201.727 146.166C200.494 147.407 198.801 148.114 196.649 148.288C197.935 148.809 199.011 149.827 199.877 151.341L204.286 159.606C204.522 159.928 204.43 160.09 204.01 160.09H203.262C202.737 160.09 202.409 159.953 202.278 159.68L198.184 152.011C197.502 150.745 196.715 149.839 195.822 149.293C194.93 148.747 193.684 148.474 192.083 148.474H185.588V159.606C185.588 159.928 185.43 160.09 185.115 160.09H184.289C183.947 160.09 183.777 159.928 183.777 159.606V134.141C183.777 133.819 183.947 133.657 184.289 133.657H195.586ZM201.688 141.103C201.688 139.242 201.137 137.802 200.034 136.784C198.932 135.767 197.384 135.258 195.389 135.258H185.588V146.874H195.389C197.384 146.874 198.932 146.377 200.034 145.384C201.137 144.367 201.688 142.94 201.688 141.103Z" fill="#202020"/>
<path d="M208.956 134.141C208.956 133.819 209.127 133.657 209.468 133.657H210.295C210.609 133.657 210.767 133.819 210.767 134.141V159.606C210.767 159.928 210.609 160.09 210.295 160.09H209.468C209.127 160.09 208.956 159.928 208.956 159.606V134.141Z" fill="#202020"/>
<path d="M237.376 133.657C237.691 133.657 237.848 133.819 237.848 134.141V159.606C237.848 159.928 237.691 160.09 237.376 160.09H236.549C236.313 160.09 236.129 159.991 235.998 159.792L222.024 140.954C221.551 140.334 220.961 139.453 220.252 138.311C219.57 137.169 219.097 136.437 218.835 136.114H218.756C218.756 136.511 218.796 137.417 218.874 138.832C218.953 140.247 218.993 141.388 218.993 142.257V159.606C218.993 159.928 218.835 160.09 218.52 160.09H217.733C217.392 160.09 217.221 159.928 217.221 159.606V134.141C217.221 133.819 217.392 133.657 217.733 133.657H218.52C218.756 133.657 218.94 133.744 219.071 133.918L232.652 152.272C233.177 152.967 233.833 153.935 234.62 155.176C235.434 156.417 235.985 157.223 236.273 157.595H236.352C236.352 157.124 236.3 156.131 236.195 154.617C236.116 153.078 236.077 151.837 236.077 150.894V134.104C236.077 133.806 236.247 133.657 236.588 133.657H237.376Z" fill="#202020"/>
<path d="M261.013 133.657C261.354 133.657 261.525 133.819 261.525 134.141V134.811C261.525 135.109 261.354 135.258 261.013 135.258H252.471V159.606C252.471 159.928 252.313 160.09 251.998 160.09H251.172C250.831 160.09 250.66 159.928 250.66 159.606V135.258H242.118C241.777 135.258 241.606 135.109 241.606 134.811V134.141C241.606 133.819 241.777 133.657 242.118 133.657H261.013Z" fill="#202020"/>
<path d="M12.5572 133.657C15.6538 133.657 18.1207 134.476 19.9577 136.114C21.7947 137.752 22.7132 140.036 22.7132 142.964C22.7132 145.868 21.8078 148.127 19.997 149.74C18.1863 151.353 15.7326 152.16 12.6359 152.16H7.79412V158.526C7.79412 159.097 7.67603 159.506 7.43984 159.755C7.20366 159.978 6.77065 160.09 6.14082 160.09H1.69266C1.06283 160.09 0.616707 159.978 0.354278 159.755C0.118093 159.506 0 159.097 0 158.526V135.221C0 134.65 0.118093 134.253 0.354278 134.029C0.616707 133.781 1.06283 133.657 1.69266 133.657H12.5572ZM11.6912 145.645C12.6097 145.645 13.3314 145.397 13.8562 144.9C14.3811 144.404 14.6435 143.746 14.6435 142.927C14.6435 142.108 14.3811 141.45 13.8562 140.954C13.3314 140.433 12.6097 140.172 11.6912 140.172H7.79412V145.645H11.6912Z" fill="url(#paint0_linear)"/>
<path d="M38.3983 133.657C41.4162 133.657 43.8043 134.439 45.5626 136.002C47.3208 137.566 48.2 139.775 48.2 142.629C48.2 146.253 46.7829 148.809 43.9486 150.298C44.3685 150.795 44.7228 151.328 45.0115 151.899L48.5543 158.265C48.8429 158.762 48.8954 159.196 48.7117 159.568C48.5543 159.916 48.1606 160.09 47.5308 160.09H43.2794C42.256 160.09 41.4687 159.966 40.9176 159.717C40.3927 159.444 39.9728 158.973 39.6579 158.303L37.1386 153.202C36.7712 152.532 36.3776 152.048 35.9577 151.75C35.5378 151.453 34.9473 151.304 34.1863 151.304H33.2809V158.526C33.2809 159.097 33.1628 159.506 32.9266 159.755C32.6905 159.978 32.2575 160.09 31.6276 160.09H27.1795C26.5496 160.09 26.1035 159.978 25.8411 159.755C25.6049 159.506 25.4868 159.097 25.4868 158.526V135.221C25.4868 134.65 25.6049 134.253 25.8411 134.029C26.1035 133.781 26.5496 133.657 27.1795 133.657H38.3983ZM40.1303 142.592C40.1303 141.847 39.9072 141.264 39.4611 140.842C39.015 140.396 38.372 140.172 37.5323 140.172H33.2809V145.086H37.5323C38.3458 145.086 38.9756 144.863 39.4217 144.416C39.8941 143.969 40.1303 143.361 40.1303 142.592Z" fill="url(#paint1_linear)"/>
<path d="M51.5118 135.146C51.5118 134.6 51.6299 134.216 51.8661 133.992C52.1023 133.769 52.509 133.657 53.0864 133.657H57.7313C58.3087 133.657 58.7155 133.769 58.9516 133.992C59.1878 134.216 59.3059 134.6 59.3059 135.146V158.6C59.3059 159.147 59.1878 159.531 58.9516 159.755C58.7155 159.978 58.3087 160.09 57.7313 160.09H53.0864C52.509 160.09 52.1023 159.978 51.8661 159.755C51.6299 159.531 51.5118 159.147 51.5118 158.6V135.146Z" fill="url(#paint2_linear)"/>
<path d="M62.4089 141.438C62.4089 138.931 63.4324 136.921 65.4793 135.407C67.5525 133.868 70.4261 133.099 74.1001 133.099C76.9868 133.099 79.3093 133.521 81.0676 134.364C82.8258 135.208 84.1642 136.524 85.0827 138.311C85.5813 139.279 85.2664 139.974 84.138 140.396L80.2016 141.996C79.6767 142.22 79.2699 142.282 78.9813 142.183C78.6926 142.083 78.3908 141.761 78.0759 141.215C77.3936 139.924 76.0683 139.279 74.1001 139.279C71.607 139.279 70.3605 139.924 70.3605 141.215C70.3605 141.934 70.7804 142.443 71.6202 142.741C72.4599 143.039 73.7589 143.287 75.5172 143.486C76.6719 143.634 77.6298 143.783 78.3908 143.932C79.1518 144.081 80.0572 144.367 81.1069 144.789C82.1829 145.186 83.0358 145.67 83.6656 146.24C84.2954 146.811 84.8334 147.606 85.2796 148.623C85.7519 149.641 85.9881 150.82 85.9881 152.16C85.9881 154.816 84.8465 156.9 82.5634 158.414C80.3065 159.904 77.3805 160.648 73.7852 160.648C67.6444 160.648 63.826 158.725 62.3302 154.878C62.1203 154.307 62.094 153.872 62.2515 153.575C62.4352 153.277 62.8157 153.029 63.393 152.83L67.0933 151.564C67.6706 151.366 68.1299 151.328 68.471 151.453C68.8122 151.552 69.1271 151.862 69.4158 152.383C70.1243 153.699 71.607 154.356 73.8639 154.356C76.6719 154.356 78.0759 153.649 78.0759 152.234C78.0759 151.564 77.6954 151.08 76.9343 150.782C76.1733 150.485 75.0186 150.236 73.4703 150.038C72.7355 149.939 72.1975 149.864 71.8563 149.814C71.5152 149.765 70.9772 149.678 70.2424 149.554C69.5076 149.405 68.9303 149.268 68.5104 149.144C68.1167 149.02 67.605 148.834 66.9752 148.586C66.3454 148.338 65.8467 148.077 65.4793 147.804C65.1119 147.531 64.7052 147.184 64.259 146.762C63.8129 146.34 63.4718 145.881 63.2356 145.384C63.0256 144.863 62.8288 144.28 62.6451 143.634C62.4877 142.964 62.4089 142.232 62.4089 141.438Z" fill="url(#paint3_linear)"/>
<path d="M115.608 133.62C116.238 133.62 116.671 133.732 116.907 133.955C117.17 134.178 117.301 134.588 117.301 135.183V158.563C117.301 159.134 117.17 159.531 116.907 159.755C116.671 159.978 116.238 160.09 115.608 160.09H111.317C110.688 160.09 110.255 159.978 110.018 159.755C109.782 159.531 109.664 159.134 109.664 158.563V153.24C109.664 150.559 110.242 147.308 111.396 143.486H110.963C110.753 144.131 110.36 145.136 109.782 146.501C109.205 147.866 108.719 148.909 108.326 149.628L106.121 153.835C105.885 154.232 105.636 154.518 105.373 154.691C105.111 154.84 104.731 154.915 104.232 154.915H101.594C101.07 154.915 100.676 154.84 100.414 154.691C100.151 154.543 99.915 154.257 99.705 153.835L97.3825 149.628C96.569 148.238 95.7555 146.191 94.9419 143.486H94.5483C95.6243 147.556 96.1622 150.82 96.1622 153.277V158.563C96.1622 159.134 96.031 159.531 95.7686 159.755C95.5324 159.978 95.0994 160.09 94.4696 160.09H90.4544C89.8246 160.09 89.3784 159.978 89.116 159.755C88.8798 159.531 88.7617 159.134 88.7617 158.563V135.183C88.7617 134.588 88.8798 134.178 89.116 133.955C89.3784 133.732 89.8246 133.62 90.4544 133.62H94.1546C94.837 133.62 95.3225 133.694 95.6111 133.843C95.8998 133.992 96.1885 134.302 96.4771 134.774L102.972 146.836L109.467 134.811C109.73 134.315 109.992 133.992 110.255 133.843C110.543 133.694 111.016 133.62 111.672 133.62H115.608Z" fill="url(#paint4_linear)"/>
<path d="M146.202 158.563C146.596 159.581 146.215 160.09 145.06 160.09H140.809C139.812 160.09 139.103 159.978 138.683 159.755C138.29 159.531 138.014 159.122 137.857 158.526L136.951 155.846H128.449L127.543 158.526C127.333 159.122 127.031 159.531 126.638 159.755C126.27 159.978 125.614 160.09 124.67 160.09H120.536C119.434 160.09 119.08 159.581 119.474 158.563L128.527 134.96C128.711 134.439 128.947 134.091 129.236 133.918C129.525 133.744 129.971 133.657 130.574 133.657H135.062C135.639 133.657 136.072 133.744 136.361 133.918C136.676 134.091 136.925 134.414 137.109 134.886L146.202 158.563ZM133.723 145.645C133.487 144.9 133.29 144.094 133.133 143.225C133.002 142.356 132.923 141.674 132.897 141.177L132.857 140.433H132.464C132.49 142.22 132.241 143.945 131.716 145.608L130.259 150.001H135.18L133.723 145.645Z" fill="url(#paint5_linear)"/>
<defs>
<filter id="filter0_d" x="102.479" y="-1.9668" width="45.3031" height="52.5124" filterUnits="userSpaceOnUse" color-interpolation-filters="sRGB">
<feFlood flood-opacity="0" result="BackgroundImageFix"/>
<feColorMatrix in="SourceAlpha" type="matrix" values="0 0 0 0 0 0 0 0 0 0 0 0 0 0 0 0 0 0 127 0"/>
<feOffset dy="4"/>
<feGaussianBlur stdDeviation="2"/>
<feColorMatrix type="matrix" values="0 0 0 0 0 0 0 0 0 0 0 0 0 0 0 0 0 0 0.35 0"/>
<feBlend mode="normal" in2="BackgroundImageFix" result="effect1_dropShadow"/>
<feBlend mode="normal" in="SourceGraphic" in2="effect1_dropShadow" result="shape"/>
</filter>
<filter id="filter1_d" x="43.4395" y="51.6436" width="102.79" height="78.1253" filterUnits="userSpaceOnUse" color-interpolation-filters="sRGB">
<feFlood flood-opacity="0" result="BackgroundImageFix"/>
<feColorMatrix in="SourceAlpha" type="matrix" values="0 0 0 0 0 0 0 0 0 0 0 0 0 0 0 0 0 0 127 0"/>
<feOffset/>
<feGaussianBlur stdDeviation="7.5"/>
<feColorMatrix type="matrix" values="0 0 0 0 0 0 0 0 0 0 0 0 0 0 0 0 0 0 0.35 0"/>
<feBlend mode="normal" in2="BackgroundImageFix" result="effect1_dropShadow"/>
<feBlend mode="normal" in="SourceGraphic" in2="effect1_dropShadow" result="shape"/>
</filter>
<filter id="filter2_d" x="79.6914" y="46.9365" width="46.7432" height="47.16" filterUnits="userSpaceOnUse" color-interpolation-filters="sRGB">
<feFlood flood-opacity="0" result="BackgroundImageFix"/>
<feColorMatrix in="SourceAlpha" type="matrix" values="0 0 0 0 0 0 0 0 0 0 0 0 0 0 0 0 0 0 127 0"/>
<feOffset/>
<feGaussianBlur stdDeviation="7.5"/>
<feColorMatrix type="matrix" values="0 0 0 0 0 0 0 0 0 0 0 0 0 0 0 0 0 0 0.35 0"/>
<feBlend mode="normal" in2="BackgroundImageFix" result="effect1_dropShadow"/>
<feBlend mode="normal" in="SourceGraphic" in2="effect1_dropShadow" result="shape"/>
</filter>
<filter id="filter3_d" x="66.1328" y="78.8359" width="75.6876" height="66.8022" filterUnits="userSpaceOnUse" color-interpolation-filters="sRGB">
<feFlood flood-opacity="0" result="BackgroundImageFix"/>
<feColorMatrix in="SourceAlpha" type="matrix" values="0 0 0 0 0 0 0 0 0 0 0 0 0 0 0 0 0 0 127 0"/>
<feOffset/>
<feGaussianBlur stdDeviation="7.5"/>
<feColorMatrix type="matrix" values="0 0 0 0 0 0 0 0 0 0 0 0 0 0 0 0 0 0 0.15 0"/>
<feBlend mode="normal" in2="BackgroundImageFix" result="effect1_dropShadow"/>
<feBlend mode="normal" in="SourceGraphic" in2="effect1_dropShadow" result="shape"/>
</filter>
<filter id="filter4_d" x="88.3906" y="70.3291" width="106.85" height="84.6797" filterUnits="userSpaceOnUse" color-interpolation-filters="sRGB">
<feFlood flood-opacity="0" result="BackgroundImageFix"/>
<feColorMatrix in="SourceAlpha" type="matrix" values="0 0 0 0 0 0 0 0 0 0 0 0 0 0 0 0 0 0 127 0"/>
<feOffset dy="4"/>
<feGaussianBlur stdDeviation="2"/>
<feColorMatrix type="matrix" values="0 0 0 0 0 0 0 0 0 0 0 0 0 0 0 0 0 0 0.15 0"/>
<feBlend mode="normal" in2="BackgroundImageFix" result="effect1_dropShadow"/>
<feBlend mode="normal" in="SourceGraphic" in2="effect1_dropShadow" result="shape"/>
</filter>
<filter id="filter5_d" x="101.682" y="-15.4756" width="150.524" height="138.755" filterUnits="userSpaceOnUse" color-interpolation-filters="sRGB">
<feFlood flood-opacity="0" result="BackgroundImageFix"/>
<feColorMatrix in="SourceAlpha" type="matrix" values="0 0 0 0 0 0 0 0 0 0 0 0 0 0 0 0 0 0 127 0"/>
<feOffset/>
<feGaussianBlur stdDeviation="7.5"/>
<feColorMatrix type="matrix" values="0 0 0 0 0 0 0 0 0 0 0 0 0 0 0 0 0 0 0.45 0"/>
<feBlend mode="normal" in2="BackgroundImageFix" result="effect1_dropShadow"/>
<feBlend mode="normal" in="SourceGraphic" in2="effect1_dropShadow" result="shape"/>
</filter>
<filter id="filter6_d" x="19.8574" y="57.3408" width="73.4308" height="73.149" filterUnits="userSpaceOnUse" color-interpolation-filters="sRGB">
<feFlood flood-opacity="0" result="BackgroundImageFix"/>
<feColorMatrix in="SourceAlpha" type="matrix" values="0 0 0 0 0 0 0 0 0 0 0 0 0 0 0 0 0 0 127 0"/>
<feOffset/>
<feGaussianBlur stdDeviation="7.5"/>
<feColorMatrix type="matrix" values="0 0 0 0 0 0 0 0 0 0 0 0 0 0 0 0 0 0 0.15 0"/>
<feBlend mode="normal" in2="BackgroundImageFix" result="effect1_dropShadow"/>
<feBlend mode="normal" in="SourceGraphic" in2="effect1_dropShadow" result="shape"/>
</filter>
<filter id="filter7_d" x="102.939" y="-11.21" width="126.259" height="91.6874" filterUnits="userSpaceOnUse" color-interpolation-filters="sRGB">
<feFlood flood-opacity="0" result="BackgroundImageFix"/>
<feColorMatrix in="SourceAlpha" type="matrix" values="0 0 0 0 0 0 0 0 0 0 0 0 0 0 0 0 0 0 127 0"/>
<feOffset/>
<feGaussianBlur stdDeviation="7.5"/>
<feColorMatrix type="matrix" values="0 0 0 0 0 0 0 0 0 0 0 0 0 0 0 0 0 0 0.12 0"/>
<feBlend mode="normal" in2="BackgroundImageFix" result="effect1_dropShadow"/>
<feBlend mode="normal" in="SourceGraphic" in2="effect1_dropShadow" result="shape"/>
</filter>
<filter id="filter8_d" x="142.893" y="21.4766" width="88.8496" height="101.866" filterUnits="userSpaceOnUse" color-interpolation-filters="sRGB">
<feFlood flood-opacity="0" result="BackgroundImageFix"/>
<feColorMatrix in="SourceAlpha" type="matrix" values="0 0 0 0 0 0 0 0 0 0 0 0 0 0 0 0 0 0 127 0"/>
<feOffset/>
<feGaussianBlur stdDeviation="5"/>
<feColorMatrix type="matrix" values="0 0 0 0 0 0 0 0 0 0 0 0 0 0 0 0 0 0 0.3 0"/>
<feBlend mode="normal" in2="BackgroundImageFix" result="effect1_dropShadow"/>
<feBlend mode="normal" in="SourceGraphic" in2="effect1_dropShadow" result="shape"/>
</filter>
<filter id="filter9_d" x="140.531" y="71.7178" width="60.1643" height="63.62" filterUnits="userSpaceOnUse" color-interpolation-filters="sRGB">
<feFlood flood-opacity="0" result="BackgroundImageFix"/>
<feColorMatrix in="SourceAlpha" type="matrix" values="0 0 0 0 0 0 0 0 0 0 0 0 0 0 0 0 0 0 127 0"/>
<feOffset/>
<feGaussianBlur stdDeviation="7.5"/>
<feColorMatrix type="matrix" values="0 0 0 0 0 0 0 0 0 0 0 0 0 0 0 0 0 0 0.55 0"/>
<feBlend mode="normal" in2="BackgroundImageFix" result="effect1_dropShadow"/>
<feBlend mode="normal" in="SourceGraphic" in2="effect1_dropShadow" result="shape"/>
</filter>
<filter id="filter10_d" x="100.941" y="74.2705" width="63.1327" height="61.2658" filterUnits="userSpaceOnUse" color-interpolation-filters="sRGB">
<feFlood flood-opacity="0" result="BackgroundImageFix"/>
<feColorMatrix in="SourceAlpha" type="matrix" values="0 0 0 0 0 0 0 0 0 0 0 0 0 0 0 0 0 0 127 0"/>
<feOffset/>
<feGaussianBlur stdDeviation="7.5"/>
<feColorMatrix type="matrix" values="0 0 0 0 0 0 0 0 0 0 0 0 0 0 0 0 0 0 0.55 0"/>
<feBlend mode="normal" in2="BackgroundImageFix" result="effect1_dropShadow"/>
<feBlend mode="normal" in="SourceGraphic" in2="effect1_dropShadow" result="shape"/>
</filter>
<filter id="filter11_d" x="102.178" y="58.3691" width="61.1135" height="54.6471" filterUnits="userSpaceOnUse" color-interpolation-filters="sRGB">
<feFlood flood-opacity="0" result="BackgroundImageFix"/>
<feColorMatrix in="SourceAlpha" type="matrix" values="0 0 0 0 0 0 0 0 0 0 0 0 0 0 0 0 0 0 127 0"/>
<feOffset/>
<feGaussianBlur stdDeviation="7.5"/>
<feColorMatrix type="matrix" values="0 0 0 0 0 0 0 0 0 0 0 0 0 0 0 0 0 0 0.55 0"/>
<feBlend mode="normal" in2="BackgroundImageFix" result="effect1_dropShadow"/>
<feBlend mode="normal" in="SourceGraphic" in2="effect1_dropShadow" result="shape"/>
</filter>
<filter id="filter12_d" x="144.924" y="46.7725" width="61.1442" height="51.8823" filterUnits="userSpaceOnUse" color-interpolation-filters="sRGB">
<feFlood flood-opacity="0" result="BackgroundImageFix"/>
<feColorMatrix in="SourceAlpha" type="matrix" values="0 0 0 0 0 0 0 0 0 0 0 0 0 0 0 0 0 0 127 0"/>
<feOffset/>
<feGaussianBlur stdDeviation="7.5"/>
<feColorMatrix type="matrix" values="0 0 0 0 0 0 0 0 0 0 0 0 0 0 0 0 0 0 0.12 0"/>
<feBlend mode="normal" in2="BackgroundImageFix" result="effect1_dropShadow"/>
<feBlend mode="normal" in="SourceGraphic" in2="effect1_dropShadow" result="shape"/>
</filter>
<linearGradient id="paint0_linear" x1="-1.96821" y1="133.206" x2="150.425" y2="160.734" gradientUnits="userSpaceOnUse">
<stop stop-color="#B71E5C"/>
<stop offset="1" stop-color="#115A7D"/>
</linearGradient>
<linearGradient id="paint1_linear" x1="-1.96821" y1="133.206" x2="150.425" y2="160.734" gradientUnits="userSpaceOnUse">
<stop stop-color="#B71E5C"/>
<stop offset="1" stop-color="#115A7D"/>
</linearGradient>
<linearGradient id="paint2_linear" x1="-1.96821" y1="133.206" x2="150.425" y2="160.734" gradientUnits="userSpaceOnUse">
<stop stop-color="#B71E5C"/>
<stop offset="1" stop-color="#115A7D"/>
</linearGradient>
<linearGradient id="paint3_linear" x1="-1.96821" y1="133.206" x2="150.425" y2="160.734" gradientUnits="userSpaceOnUse">
<stop stop-color="#B71E5C"/>
<stop offset="1" stop-color="#115A7D"/>
</linearGradient>
<linearGradient id="paint4_linear" x1="-1.96821" y1="133.206" x2="150.425" y2="160.734" gradientUnits="userSpaceOnUse">
<stop stop-color="#B71E5C"/>
<stop offset="1" stop-color="#115A7D"/>
</linearGradient>
<linearGradient id="paint5_linear" x1="-1.96821" y1="133.206" x2="150.425" y2="160.734" gradientUnits="userSpaceOnUse">
<stop stop-color="#B71E5C"/>
<stop offset="1" stop-color="#115A7D"/>
</linearGradient>
</defs>
</svg>
