<svg width="80" height="431" viewBox="0 0 80 431" fill="none" xmlns="http://www.w3.org/2000/svg">
<g opacity="0.5">
<path opacity="0.7" fill-rule="evenodd" clip-rule="evenodd" d="M34 6L59 6L59 7L34 7L34 6Z" fill="#961E50"/>
<path opacity="0.4" fill-rule="evenodd" clip-rule="evenodd" d="M44 29L59 29L59 30L44 30L44 29Z" fill="#961E50"/>
<path opacity="0.4" fill-rule="evenodd" clip-rule="evenodd" d="M44 54L59 54L59 55L44 55L44 54Z" fill="#961E50"/>
<path opacity="0.4" fill-rule="evenodd" clip-rule="evenodd" d="M44 79L59 79L59 80L44 80L44 79Z" fill="#961E50"/>
<path opacity="0.4" fill-rule="evenodd" clip-rule="evenodd" d="M44 104L59 104L59 105L44 105L44 104Z" fill="#961E50"/>
<path opacity="0.4" fill-rule="evenodd" clip-rule="evenodd" d="M44 129L59 129L59 130L44 130L44 129Z" fill="#961E50"/>
<path opacity="0.4" fill-rule="evenodd" clip-rule="evenodd" d="M44 154L59 154L59 155L44 155L44 154Z" fill="#961E50"/>
<path opacity="0.4" fill-rule="evenodd" clip-rule="evenodd" d="M44 179L59 179L59 180L44 180L44 179Z" fill="#961E50"/>
<path opacity="0.7" fill-rule="evenodd" clip-rule="evenodd" d="M34 202L59 202L59 203L34 203L34 202Z" fill="#961E50"/>
<path opacity="0.7" fill-rule="evenodd" clip-rule="evenodd" d="M34 423L59 423L59 424L34 424L34 423Z" fill="#961E50"/>
<path opacity="0.4" fill-rule="evenodd" clip-rule="evenodd" d="M44 227L59 227L59 228L44 228L44 227Z" fill="#961E50"/>
<path opacity="0.4" fill-rule="evenodd" clip-rule="evenodd" d="M44 252L59 252L59 253L44 253L44 252Z" fill="#961E50"/>
<path opacity="0.4" fill-rule="evenodd" clip-rule="evenodd" d="M44 277L59 277L59 278L44 278L44 277Z" fill="#961E50"/>
<path opacity="0.4" fill-rule="evenodd" clip-rule="evenodd" d="M44 302L59 302L59 303L44 303L44 302Z" fill="#961E50"/>
<path opacity="0.4" fill-rule="evenodd" clip-rule="evenodd" d="M44 327L59 327L59 328L44 328L44 327Z" fill="#961E50"/>
<path opacity="0.4" fill-rule="evenodd" clip-rule="evenodd" d="M44 352L59 352L59 353L44 353L44 352Z" fill="#961E50"/>
<path opacity="0.4" fill-rule="evenodd" clip-rule="evenodd" d="M44 377L59 377L59 378L44 378L44 377Z" fill="#961E50"/>
<path opacity="0.4" fill-rule="evenodd" clip-rule="evenodd" d="M44 402L59 402L59 403L44 403L44 402Z" fill="#961E50"/>
</g>
<path opacity="0.5" fill-rule="evenodd" clip-rule="evenodd" d="M68 424L68 6L69 6L69 424L68 424Z" fill="#961E50"/>
<path d="M26.4901 426.698C25.7248 427.678 24.7261 428.168 23.4941 428.168C22.2621 428.168 21.2634 427.683 20.4981 426.712C19.7421 425.732 19.3641 424.528 19.3641 423.1C19.3641 421.691 19.7468 420.496 20.5121 419.516C21.2868 418.527 22.2901 418.032 23.5221 418.032C24.7541 418.032 25.7481 418.522 26.5041 419.502C27.2601 420.473 27.6381 421.672 27.6381 423.1C27.6381 424.509 27.2554 425.709 26.4901 426.698ZM21.3521 425.97C21.9121 426.763 22.6354 427.16 23.5221 427.16C24.4088 427.16 25.1228 426.768 25.6641 425.984C26.2148 425.191 26.4901 424.229 26.4901 423.1C26.4901 421.989 26.2101 421.037 25.6501 420.244C25.0994 419.441 24.3808 419.04 23.4941 419.04C22.6074 419.04 21.8888 419.437 21.3381 420.23C20.7874 421.014 20.5121 421.971 20.5121 423.1C20.5121 424.211 20.7921 425.167 21.3521 425.97Z" fill="#DBB1C2"/>
<path d="M22.9972 206V197.278L21.1492 197.852L20.8832 196.956L23.2772 196.13H24.0892V206H22.9972Z" fill="#DBB1C2"/>
<path d="M2.58608 10V1.278L0.738078 1.852L0.472078 0.956L2.86608 0.129999H3.67808V10H2.58608ZM5.90966 11.708L5.74166 11.218C6.36699 10.9847 6.67966 10.6253 6.67966 10.14V10H6.17566V8.53H7.46366V9.79C7.46366 10.35 7.33766 10.7793 7.08566 11.078C6.84299 11.3767 6.45099 11.5867 5.90966 11.708ZM15.5713 9.37C14.8713 9.88333 13.994 10.14 12.9393 10.14C11.8846 10.14 11.0073 9.87867 10.3073 9.356C9.6073 8.83333 9.2573 8.16133 9.2573 7.34C9.2573 6.78 9.4393 6.29467 9.8033 5.884C10.1673 5.47333 10.6573 5.156 11.2733 4.932C10.1533 4.41867 9.5933 3.658 9.5933 2.65C9.5933 1.91267 9.91996 1.29667 10.5733 0.802C11.236 0.307333 12.0246 0.0599995 12.9393 0.0599995C13.854 0.0599995 14.638 0.307333 15.2913 0.802C15.954 1.29667 16.2853 1.922 16.2853 2.678C16.2853 3.66733 15.7253 4.41867 14.6053 4.932C15.9493 5.436 16.6213 6.24333 16.6213 7.354C16.6213 8.17533 16.2713 8.84733 15.5713 9.37ZM11.3433 4.036C11.7726 4.372 12.3046 4.54 12.9393 4.54C13.574 4.54 14.106 4.372 14.5353 4.036C14.9646 3.7 15.1793 3.26133 15.1793 2.72C15.1793 2.23467 14.9646 1.83333 14.5353 1.516C14.106 1.18933 13.574 1.026 12.9393 1.026C12.2953 1.026 11.7586 1.18933 11.3293 1.516C10.9093 1.83333 10.6993 2.244 10.6993 2.748C10.6993 3.27067 10.914 3.7 11.3433 4.036ZM11.0633 8.642C11.53 8.99667 12.1553 9.174 12.9393 9.174C13.7233 9.174 14.344 8.99667 14.8013 8.642C15.268 8.28733 15.5013 7.844 15.5013 7.312C15.5013 6.77067 15.254 6.32733 14.7593 5.982C14.2646 5.62733 13.658 5.45 12.9393 5.45C12.2113 5.45 11.6 5.62733 11.1053 5.982C10.62 6.33667 10.3773 6.78933 10.3773 7.34C10.3773 7.85333 10.606 8.28733 11.0633 8.642ZM21.5897 10.168C20.2923 10.168 19.1257 9.65 18.0897 8.614L18.8177 7.816C19.7417 8.712 20.6703 9.16 21.6037 9.16C22.3037 9.16 22.873 8.95467 23.3117 8.544C23.7503 8.13333 23.9697 7.606 23.9697 6.962C23.9697 6.35533 23.741 5.86067 23.2837 5.478C22.8357 5.09533 22.2523 4.904 21.5337 4.904C20.8617 4.904 20.1757 5.09067 19.4757 5.464L18.7337 4.974L19.0137 0.199999H24.6557V1.222H19.9797L19.7697 4.358C20.4323 4.06867 21.0763 3.924 21.7017 3.924C22.6817 3.924 23.489 4.19933 24.1237 4.75C24.7677 5.29133 25.0897 6.024 25.0897 6.948C25.0897 7.9 24.763 8.67467 24.1097 9.272C23.4563 9.86933 22.6163 10.168 21.5897 10.168Z" fill="#DBB1C2"/>
</svg>
