<svg width="455" height="95" viewBox="0 0 455 95" fill="none" xmlns="http://www.w3.org/2000/svg">
<path d="M294.657 1.36279C299.375 1.36279 303.098 2.70558 305.827 5.39116C308.602 8.07673 309.989 11.781 309.989 16.5039C309.989 21.1805 308.602 24.8616 305.827 27.5471C303.098 30.1864 299.375 31.506 294.657 31.506H278.285V49.7726C278.285 50.3745 278.007 50.6755 277.452 50.6755H275.996C275.394 50.6755 275.094 50.3745 275.094 49.7726V2.2657C275.094 1.66376 275.394 1.36279 275.996 1.36279H294.657ZM294.38 28.5195C298.172 28.5195 301.156 27.4545 303.329 25.3246C305.549 23.1947 306.659 20.2544 306.659 16.5039C306.659 12.707 305.549 9.74364 303.329 7.6137C301.156 5.43746 298.172 4.34933 294.38 4.34933H278.285V28.5195H294.38Z" fill="#202020"/>
<path d="M338.791 1.36279C343.185 1.36279 346.631 2.58982 349.128 5.04388C351.626 7.45164 352.874 10.8549 352.874 15.2537C352.874 19.1894 351.787 22.338 349.614 24.6995C347.44 27.0147 344.457 28.3343 340.664 28.6584C342.931 29.6308 344.827 31.5292 346.353 34.3537L354.123 49.7726C354.539 50.3745 354.377 50.6755 353.637 50.6755H352.319C351.394 50.6755 350.816 50.4208 350.585 49.9115L343.37 35.6039C342.167 33.2424 340.78 31.5523 339.207 30.5337C337.635 29.515 335.438 29.0057 332.617 29.0057H321.17V49.7726C321.17 50.3745 320.893 50.6755 320.338 50.6755H318.881C318.279 50.6755 317.979 50.3745 317.979 49.7726V2.2657C317.979 1.66376 318.279 1.36279 318.881 1.36279H338.791ZM349.544 15.2537C349.544 11.781 348.573 9.09539 346.631 7.19697C344.688 5.29855 341.959 4.34933 338.444 4.34933H321.17V26.0191H338.444C341.959 26.0191 344.688 25.0931 346.631 23.241C348.573 21.3425 349.544 18.6801 349.544 15.2537Z" fill="#202020"/>
<path d="M362.354 2.2657C362.354 1.66376 362.655 1.36279 363.256 1.36279H364.713C365.268 1.36279 365.546 1.66376 365.546 2.2657V49.7726C365.546 50.3745 365.268 50.6755 364.713 50.6755H363.256C362.655 50.6755 362.354 50.3745 362.354 49.7726V2.2657Z" fill="#202020"/>
<path d="M412.44 1.36279C412.995 1.36279 413.273 1.66376 413.273 2.2657V49.7726C413.273 50.3745 412.995 50.6755 412.44 50.6755H410.983C410.567 50.6755 410.243 50.4903 410.012 50.1199L385.384 14.9759C384.551 13.8183 383.511 12.1745 382.262 10.0446C381.06 7.91467 380.227 6.54873 379.765 5.94679H379.626C379.626 6.68764 379.695 8.3777 379.834 11.017C379.973 13.6562 380.042 15.7862 380.042 17.4068V49.7726C380.042 50.3745 379.765 50.6755 379.21 50.6755H377.822C377.221 50.6755 376.92 50.3745 376.92 49.7726V2.2657C376.92 1.66376 377.221 1.36279 377.822 1.36279H379.21C379.626 1.36279 379.95 1.52485 380.181 1.84898L404.115 36.09C405.04 37.3865 406.196 39.1923 407.584 41.5075C409.018 43.8226 409.989 45.3275 410.498 46.022H410.636C410.636 45.1423 410.544 43.2902 410.359 40.4657C410.22 37.5949 410.151 35.2797 410.151 33.5202V2.19625C410.151 1.64061 410.451 1.36279 411.053 1.36279H412.44Z" fill="#202020"/>
<path d="M454.098 1.36279C454.699 1.36279 455 1.66376 455 2.2657V3.51588C455 4.07152 454.699 4.34933 454.098 4.34933H439.044V49.7726C439.044 50.3745 438.766 50.6755 438.211 50.6755H436.754C436.153 50.6755 435.853 50.3745 435.853 49.7726V4.34933H420.798C420.197 4.34933 419.896 4.07152 419.896 3.51588V2.2657C419.896 1.66376 420.197 1.36279 420.798 1.36279H454.098Z" fill="#202020"/>
<path d="M22.1303 1.36286C27.5878 1.36286 31.9353 2.89086 35.1728 5.94686C38.4103 9.00286 40.029 13.2627 40.029 18.7265C40.029 24.1439 38.4334 28.3575 35.2422 31.3672C32.0509 34.3769 27.7266 35.8817 22.2691 35.8817H13.736V47.7585C13.736 48.8234 13.5278 49.5874 13.1116 50.0505C12.6954 50.4672 11.9322 50.6756 10.8222 50.6756H2.98287C1.87288 50.6756 1.08663 50.4672 0.62413 50.0505C0.20788 49.5874 -0.000244141 48.8234 -0.000244141 47.7585V4.27995C-0.000244141 3.21498 0.20788 2.47413 0.62413 2.05741C1.08663 1.59438 1.87288 1.36286 2.98287 1.36286H22.1303ZM20.6041 23.7272C22.2228 23.7272 23.4947 23.2642 24.4197 22.3381C25.3447 21.4121 25.8072 20.185 25.8072 18.657C25.8072 17.129 25.3447 15.902 24.4197 14.9759C23.4947 14.0036 22.2228 13.5174 20.6041 13.5174H13.736V23.7272H20.6041Z" fill="url(#paint0_linear)"/>
<path d="M67.6722 1.36286C72.9909 1.36286 77.1997 2.82141 80.2984 5.7385C83.3972 8.65558 84.9465 12.7766 84.9465 18.1014C84.9465 24.8616 82.449 29.6308 77.454 32.409C78.194 33.3351 78.8184 34.3306 79.3272 35.3956L85.5709 47.2723C86.0797 48.1984 86.1722 49.0087 85.8484 49.7032C85.5709 50.3514 84.8772 50.6756 83.7672 50.6756H76.2747C74.4709 50.6756 73.0834 50.444 72.1122 49.981C71.1872 49.4717 70.4472 48.5919 69.8922 47.3417L65.4522 37.8265C64.8047 36.5763 64.111 35.6734 63.371 35.1178C62.631 34.5621 61.5903 34.2843 60.2491 34.2843H58.6535V47.7585C58.6535 48.8234 58.4453 49.5874 58.0291 50.0505C57.6128 50.4672 56.8497 50.6756 55.7397 50.6756H47.9004C46.7904 50.6756 46.0041 50.4672 45.5416 50.0505C45.1254 49.5874 44.9173 48.8234 44.9173 47.7585V4.27995C44.9173 3.21498 45.1254 2.47413 45.5416 2.05741C46.0041 1.59438 46.7904 1.36286 47.9004 1.36286H67.6722ZM70.7247 18.0319C70.7247 16.6429 70.3316 15.5547 69.5453 14.7676C68.7591 13.9341 67.6259 13.5174 66.146 13.5174H58.6535V22.6854H66.146C67.5797 22.6854 68.6897 22.2687 69.4759 21.4352C70.3084 20.6018 70.7247 19.4673 70.7247 18.0319Z" fill="url(#paint1_linear)"/>
<path d="M90.7832 4.14104C90.7832 3.12238 90.9914 2.40468 91.4076 1.98795C91.8239 1.57123 92.5407 1.36286 93.5582 1.36286H101.744C102.762 1.36286 103.479 1.57123 103.895 1.98795C104.311 2.40468 104.519 3.12238 104.519 4.14104V47.8974C104.519 48.916 104.311 49.6337 103.895 50.0505C103.479 50.4672 102.762 50.6756 101.744 50.6756H93.5582C92.5407 50.6756 91.8239 50.4672 91.4076 50.0505C90.9914 49.6337 90.7832 48.916 90.7832 47.8974V4.14104Z" fill="url(#paint2_linear)"/>
<path d="M109.988 15.8789C109.988 11.2022 111.792 7.45171 115.399 4.62722C119.053 1.75644 124.117 0.321045 130.592 0.321045C135.68 0.321045 139.773 1.1082 142.872 2.6825C145.971 4.2568 148.329 6.71086 149.948 10.0447C150.827 11.8505 150.272 13.147 148.283 13.9341L141.346 16.9207C140.421 17.3374 139.704 17.4532 139.195 17.2679C138.686 17.0827 138.154 16.4808 137.599 15.4621C136.397 13.0544 134.061 11.8505 130.592 11.8505C126.199 11.8505 124.002 13.0544 124.002 15.4621C124.002 16.8049 124.742 17.7541 126.222 18.3098C127.702 18.8654 129.991 19.3284 133.09 19.6989C135.125 19.9767 136.813 20.2545 138.154 20.5323C139.496 20.8101 141.091 21.3426 142.941 22.1298C144.837 22.8706 146.341 23.7735 147.451 24.8385C148.561 25.9035 149.509 27.3851 150.295 29.2836C151.127 31.182 151.544 33.3814 151.544 35.8817C151.544 40.8362 149.532 44.7256 145.508 47.5501C141.531 50.3283 136.374 51.7174 130.037 51.7174C119.215 51.7174 112.486 48.1289 109.849 40.9519C109.479 39.887 109.433 39.0767 109.711 38.521C110.034 37.9654 110.705 37.5024 111.723 37.1319L118.244 34.7705C119.261 34.4001 120.071 34.3306 120.672 34.5621C121.273 34.7473 121.828 35.3261 122.337 36.2985C123.586 38.7525 126.199 39.9796 130.176 39.9796C135.125 39.9796 137.599 38.6599 137.599 36.0207C137.599 34.7705 136.929 33.8676 135.587 33.3119C134.246 32.7563 132.211 32.2933 129.482 31.9228C128.187 31.7376 127.239 31.5987 126.638 31.5061C126.037 31.4135 125.089 31.2515 123.794 31.0199C122.499 30.7421 121.481 30.4875 120.741 30.2559C120.047 30.0244 119.146 29.6771 118.036 29.2141C116.926 28.7511 116.047 28.2649 115.399 27.7556C114.752 27.2462 114.035 26.598 113.249 25.8109C112.463 25.0237 111.861 24.1671 111.445 23.241C111.075 22.2687 110.728 21.1805 110.404 19.9767C110.127 18.7265 109.988 17.3605 109.988 15.8789Z" fill="url(#paint3_linear)"/>
<path d="M203.746 1.29341C204.856 1.29341 205.619 1.50177 206.035 1.9185C206.497 2.33523 206.729 3.09923 206.729 4.2105V47.8279C206.729 48.8929 206.497 49.6337 206.035 50.0505C205.619 50.4672 204.856 50.6756 203.746 50.6756H196.184C195.074 50.6756 194.311 50.4672 193.894 50.0505C193.478 49.6337 193.27 48.8929 193.27 47.8279V37.8959C193.27 32.8952 194.287 26.8295 196.322 19.6989H195.559C195.189 20.9027 194.496 22.778 193.478 25.3247C192.461 27.8713 191.605 29.8161 190.911 31.1588L187.026 39.0072C186.61 39.748 186.171 40.2805 185.708 40.6047C185.246 40.8825 184.575 41.0214 183.696 41.0214H179.048C178.123 41.0214 177.429 40.8825 176.967 40.6047C176.504 40.3268 176.088 39.7943 175.718 39.0072L171.625 31.1588C170.191 28.5659 168.757 24.7459 167.324 19.6989H166.63C168.526 27.2925 169.474 33.3814 169.474 37.9654V47.8279C169.474 48.8929 169.243 49.6337 168.781 50.0505C168.364 50.4672 167.601 50.6756 166.491 50.6756H159.415C158.305 50.6756 157.519 50.4672 157.056 50.0505C156.64 49.6337 156.432 48.8929 156.432 47.8279V4.2105C156.432 3.09923 156.64 2.33523 157.056 1.9185C157.519 1.50177 158.305 1.29341 159.415 1.29341H165.936C167.139 1.29341 167.994 1.43232 168.503 1.71013C169.012 1.98795 169.521 2.56674 170.029 3.4465L181.476 25.9498L192.923 3.51595C193.386 2.58989 193.848 1.98795 194.311 1.71013C194.819 1.43232 195.652 1.29341 196.808 1.29341H203.746Z" fill="url(#paint4_linear)"/>
<path d="M257.663 47.8279C258.357 49.7263 257.686 50.6756 255.651 50.6756H248.159C246.401 50.6756 245.153 50.4672 244.413 50.0505C243.719 49.6337 243.233 48.8697 242.956 47.7585L241.36 42.7577H226.375L224.78 47.7585C224.41 48.8697 223.878 49.6337 223.184 50.0505C222.537 50.4672 221.38 50.6756 219.715 50.6756H212.431C210.488 50.6756 209.864 49.7263 210.558 47.8279L226.514 3.79377C226.838 2.82141 227.254 2.17317 227.763 1.84905C228.272 1.52492 229.058 1.36286 230.122 1.36286H238.03C239.048 1.36286 239.811 1.52492 240.32 1.84905C240.875 2.17317 241.314 2.7751 241.638 3.65486L257.663 47.8279ZM235.671 23.7272C235.255 22.3381 234.908 20.8333 234.631 19.2127C234.4 17.5921 234.261 16.3187 234.215 15.3927L234.145 14.0036H233.452C233.498 17.3374 233.058 20.5555 232.133 23.6578L229.567 31.8534H238.238L235.671 23.7272Z" fill="url(#paint5_linear)"/>
<path d="M25.2166 74.9631C26.5478 74.9631 27.5758 75.3037 28.3006 75.9848C29.0254 76.666 29.3878 77.6508 29.3878 78.9391C29.3878 80.8197 28.6186 82.034 27.0803 82.5819V82.6263C28.9736 83.041 29.9203 84.3441 29.9203 86.5357C29.9203 87.8684 29.5283 88.905 28.7443 89.6454C27.9604 90.371 26.8807 90.7338 25.5051 90.7338H18.9156C18.7233 90.7338 18.6271 90.6376 18.6271 90.4451V75.2518C18.6271 75.0593 18.7233 74.9631 18.9156 74.9631H25.2166ZM28.345 79.0501C28.345 78.0284 28.064 77.2509 27.5019 76.7178C26.9546 76.1848 26.1559 75.9182 25.1057 75.9182H19.6477V82.2265H25.1057C26.1411 82.2265 26.9398 81.96 27.5019 81.4269C28.064 80.8938 28.345 80.1015 28.345 79.0501ZM28.8553 86.4469C28.8553 85.3807 28.5595 84.5662 27.9678 84.0035C27.3909 83.4408 26.5552 83.1594 25.4607 83.1594H19.6477V89.7787H25.4607C26.5552 89.7787 27.3909 89.4973 27.9678 88.9346C28.5595 88.3571 28.8553 87.5279 28.8553 86.4469Z" fill="#202020"/>
<path d="M42.1596 74.9631C42.3519 74.9631 42.448 75.0593 42.448 75.2518V75.6517C42.448 75.8294 42.3519 75.9182 42.1596 75.9182H33.8395V82.2709H41.2056C41.3831 82.2709 41.4718 82.3598 41.4718 82.5375V82.9373C41.4718 83.1298 41.3831 83.2261 41.2056 83.2261H33.8395V89.7787H42.4702C42.6625 89.7787 42.7586 89.8676 42.7586 90.0453V90.4451C42.7586 90.6376 42.6625 90.7338 42.4702 90.7338H33.1074C32.9151 90.7338 32.8189 90.6376 32.8189 90.4451V75.2518C32.8189 75.0593 32.9151 74.9631 33.1074 74.9631H42.1596Z" fill="#202020"/>
<path d="M51.7291 74.9631C53.2378 74.9631 54.4285 75.3925 55.3012 76.2514C56.1886 77.1103 56.6324 78.2949 56.6324 79.8054C56.6324 81.301 56.1886 82.4782 55.3012 83.3371C54.4285 84.1812 53.2378 84.6032 51.7291 84.6032H46.493V90.4451C46.493 90.6376 46.4042 90.7338 46.2267 90.7338H45.7608C45.5685 90.7338 45.4724 90.6376 45.4724 90.4451V75.2518C45.4724 75.0593 45.5685 74.9631 45.7608 74.9631H51.7291ZM51.6403 83.6481C52.8532 83.6481 53.8072 83.3075 54.5024 82.6263C55.2124 81.9452 55.5674 81.0048 55.5674 79.8054C55.5674 78.5911 55.2124 77.6434 54.5024 76.9622C53.8072 76.2662 52.8532 75.9182 51.6403 75.9182H46.493V83.6481H51.6403Z" fill="#202020"/>
<path d="M68.5947 74.9631C68.787 74.9631 68.8832 75.0593 68.8832 75.2518V75.6517C68.8832 75.8294 68.787 75.9182 68.5947 75.9182H63.7802V90.4451C63.7802 90.6376 63.6914 90.7338 63.5139 90.7338H63.048C62.8557 90.7338 62.7596 90.6376 62.7596 90.4451V75.9182H57.945C57.7527 75.9182 57.6566 75.8294 57.6566 75.6517V75.2518C57.6566 75.0593 57.7527 74.9631 57.945 74.9631H68.5947Z" fill="#202020"/>
<path d="M82.4 74.9631C82.5923 74.9631 82.6884 75.0593 82.6884 75.2518V90.4451C82.6884 90.6376 82.5923 90.7338 82.4 90.7338H81.9341C81.7418 90.7338 81.6456 90.6376 81.6456 90.4451V80.6272C81.6456 79.3685 81.7048 77.9469 81.8231 76.3625H81.7788C81.1427 77.4286 80.3292 78.6799 79.3382 80.1163L72.0609 90.5561C71.9869 90.6746 71.876 90.7338 71.7281 90.7338H71.2844C71.0921 90.7338 70.9959 90.6376 70.9959 90.4451V75.2518C70.9959 75.0593 71.0921 74.9631 71.2844 74.9631H71.7503C71.9278 74.9631 72.0165 75.0593 72.0165 75.2518V84.7809C72.0165 86.5727 71.9648 88.0906 71.8612 89.3345H71.9056C72.4233 88.4608 73.3034 87.1058 74.5458 85.2696L81.6234 75.1186C81.6974 75.0149 81.8009 74.9631 81.9341 74.9631H82.4Z" fill="#202020"/>
<path d="M97.3629 90.4451C97.4665 90.6376 97.4147 90.7338 97.2076 90.7338H96.7639C96.4829 90.7338 96.298 90.6524 96.2092 90.4895L93.6134 85.314C93.2288 84.5588 92.7851 84.0183 92.2822 83.6925C91.7793 83.3667 91.0767 83.2039 90.1744 83.2039H87.3567V90.4451C87.3567 90.6376 87.2679 90.7338 87.0904 90.7338H86.6245C86.4322 90.7338 86.3361 90.6376 86.3361 90.4451V75.2518C86.3361 75.0593 86.4322 74.9631 86.6245 74.9631H87.0904C87.2679 74.9631 87.3567 75.0593 87.3567 75.2518V82.2709H90.1078C90.3741 82.2709 90.559 82.2783 90.6625 82.2931L95.8986 75.2074C96.0317 75.0445 96.224 74.9631 96.4755 74.9631H96.9858C97.2076 74.9631 97.252 75.0593 97.1189 75.2518L91.7275 82.4708C92.3783 82.6189 92.9256 82.8929 93.3693 83.2927C93.813 83.6777 94.2124 84.2182 94.5674 84.9142L97.3629 90.4451Z" fill="#202020"/>
<path d="M111.576 90.4673C111.65 90.645 111.576 90.7338 111.354 90.7338H110.955C110.659 90.7338 110.496 90.6524 110.467 90.4895L108.492 85.5806H101.126L99.1736 90.4895C99.1144 90.6524 98.9443 90.7338 98.6633 90.7338H98.2861C98.079 90.7338 98.0125 90.645 98.0864 90.4673L104.232 75.1186C104.306 74.9409 104.432 74.852 104.609 74.852H105.053C105.245 74.852 105.371 74.9409 105.43 75.1186L111.576 90.4673ZM105.053 76.8289C105.009 76.6956 104.935 76.3773 104.831 75.8738H104.765C104.765 76.1699 104.706 76.4883 104.587 76.8289L101.437 84.7143H108.204L105.053 76.8289Z" fill="#202020"/>
<path d="M124.086 74.9631C124.263 74.9631 124.352 75.0593 124.352 75.2518V90.4451C124.352 90.6376 124.263 90.7338 124.086 90.7338H123.62C123.428 90.7338 123.331 90.6376 123.331 90.4451V75.9182H116.121V80.4051C116.121 81.649 116.084 82.7596 116.01 83.7369C115.951 84.7143 115.869 85.5361 115.766 86.2025C115.677 86.8689 115.529 87.4612 115.322 87.9795C115.13 88.4978 114.96 88.905 114.812 89.2012C114.664 89.4825 114.435 89.7565 114.124 90.023C113.813 90.2748 113.569 90.4525 113.392 90.5561C113.214 90.6598 112.933 90.8079 112.549 91.0004C112.371 91.0892 112.245 91.0522 112.171 90.8893L111.95 90.4673C111.861 90.3044 111.905 90.1785 112.083 90.0897C112.541 89.8527 112.874 89.6602 113.081 89.5122C113.303 89.3641 113.569 89.0753 113.88 88.6459C114.19 88.2164 114.412 87.6907 114.545 87.0688C114.693 86.4469 114.819 85.5806 114.923 84.47C115.041 83.3445 115.1 81.9896 115.1 80.4051V75.2518C115.1 75.0593 115.196 74.9631 115.389 74.9631H124.086Z" fill="#202020"/>
<path d="M128.29 90.7338C128.098 90.7338 128.001 90.6376 128.001 90.4451V75.2518C128.001 75.0593 128.098 74.9631 128.29 74.9631H128.756C128.933 74.9631 129.022 75.0593 129.022 75.2518V81.0937H134.258C135.767 81.0937 136.958 81.5231 137.83 82.382C138.718 83.2261 139.161 84.3959 139.161 85.8915C139.161 87.402 138.718 88.5866 137.83 89.4455C136.958 90.3044 135.767 90.7338 134.258 90.7338H128.29ZM129.022 82.0488V89.7787H134.169C135.382 89.7787 136.336 89.4381 137.032 88.7569C137.741 88.061 138.096 87.1058 138.096 85.8915C138.096 84.6921 137.741 83.7518 137.032 83.0706C136.336 82.3894 135.382 82.0488 134.169 82.0488H129.022Z" fill="#202020"/>
<path d="M152.854 74.9631C153.047 74.9631 153.143 75.0593 153.143 75.2518V90.4451C153.143 90.6376 153.047 90.7338 152.854 90.7338H152.388C152.211 90.7338 152.122 90.6376 152.122 90.4451V83.2261H142.737V90.4451C142.737 90.6376 142.648 90.7338 142.471 90.7338H142.005C141.813 90.7338 141.717 90.6376 141.717 90.4451V75.2518C141.717 75.0593 141.813 74.9631 142.005 74.9631H142.471C142.648 74.9631 142.737 75.0593 142.737 75.2518V82.2709H152.122V75.2518C152.122 75.0593 152.211 74.9631 152.388 74.9631H152.854Z" fill="#202020"/>
<path d="M168.712 90.4673C168.786 90.645 168.712 90.7338 168.49 90.7338H168.09C167.795 90.7338 167.632 90.6524 167.602 90.4895L165.628 85.5806H158.262L156.309 90.4895C156.25 90.6524 156.08 90.7338 155.799 90.7338H155.422C155.215 90.7338 155.148 90.645 155.222 90.4673L161.368 75.1186C161.442 74.9409 161.567 74.852 161.745 74.852H162.189C162.381 74.852 162.507 74.9409 162.566 75.1186L168.712 90.4673ZM162.189 76.8289C162.144 76.6956 162.07 76.3773 161.967 75.8738H161.9C161.9 76.1699 161.841 76.4883 161.723 76.8289L158.572 84.7143H165.339L162.189 76.8289Z" fill="#202020"/>
<path d="M170.172 79.4055C170.172 77.9988 170.572 76.9104 171.37 76.1403C172.169 75.3555 173.271 74.9631 174.676 74.9631H181.044C181.236 74.9631 181.332 75.0593 181.332 75.2518V90.4451C181.332 90.6376 181.236 90.7338 181.044 90.7338H180.578C180.4 90.7338 180.312 90.6376 180.312 90.4451V83.8036H176.562C175.645 83.8036 174.935 83.9665 174.432 84.2923C173.944 84.6032 173.515 85.1437 173.145 85.9138L171.015 90.4895C170.927 90.6524 170.742 90.7338 170.461 90.7338H170.017C169.81 90.7338 169.758 90.6376 169.862 90.4451L172.213 85.5139C172.642 84.5958 173.197 83.9887 173.877 83.6925C172.694 83.5592 171.777 83.1298 171.126 82.4042C170.49 81.6638 170.172 80.6642 170.172 79.4055ZM174.787 75.9182C173.663 75.9182 172.79 76.2218 172.169 76.8289C171.548 77.436 171.237 78.2949 171.237 79.4055C171.237 80.5013 171.548 81.3528 172.169 81.96C172.79 82.5523 173.663 82.8485 174.787 82.8485H180.312V75.9182H174.787Z" fill="#202020"/>
<path d="M201.518 74.9631C201.696 74.9631 201.784 75.0593 201.784 75.2518V89.7787H203.315C203.493 89.7787 203.582 89.8676 203.582 90.0453V93.8436C203.582 94.0361 203.493 94.1323 203.315 94.1323H202.849C202.672 94.1323 202.583 94.0361 202.583 93.8436V90.7338H189.87V93.8436C189.87 94.0361 189.774 94.1323 189.582 94.1323H189.138C188.946 94.1323 188.849 94.0361 188.849 93.8436V90.0453C188.849 89.8676 188.946 89.7787 189.138 89.7787H190.048C190.388 89.5418 190.669 89.2752 190.891 88.9791C191.127 88.6829 191.379 88.1942 191.645 87.513C191.926 86.8319 192.133 85.8397 192.266 84.5366C192.414 83.2187 192.488 81.612 192.488 79.7165V75.2518C192.488 75.0593 192.584 74.9631 192.777 74.9631H201.518ZM193.464 75.9182V79.7165C193.464 82.9743 193.265 85.314 192.865 86.7356C192.481 88.1572 191.97 89.1716 191.334 89.7787H200.764V75.9182H193.464Z" fill="#202020"/>
<path d="M215.234 74.9631C215.427 74.9631 215.523 75.0593 215.523 75.2518V75.6517C215.523 75.8294 215.427 75.9182 215.234 75.9182H206.914V82.2709H214.28C214.458 82.2709 214.547 82.3598 214.547 82.5375V82.9373C214.547 83.1298 214.458 83.2261 214.28 83.2261H206.914V89.7787H215.545C215.737 89.7787 215.834 89.8676 215.834 90.0453V90.4451C215.834 90.6376 215.737 90.7338 215.545 90.7338H206.182C205.99 90.7338 205.894 90.6376 205.894 90.4451V75.2518C205.894 75.0593 205.99 74.9631 206.182 74.9631H215.234Z" fill="#202020"/>
<path d="M229.574 90.4451C229.678 90.6376 229.626 90.7338 229.419 90.7338H228.975C228.694 90.7338 228.509 90.6524 228.42 90.4895L225.825 85.314C225.44 84.5588 224.996 84.0183 224.493 83.6925C223.99 83.3667 223.288 83.2039 222.386 83.2039H219.568V90.4451C219.568 90.6376 219.479 90.7338 219.302 90.7338H218.836C218.643 90.7338 218.547 90.6376 218.547 90.4451V75.2518C218.547 75.0593 218.643 74.9631 218.836 74.9631H219.302C219.479 74.9631 219.568 75.0593 219.568 75.2518V82.2709H222.319C222.585 82.2709 222.77 82.2783 222.874 82.2931L228.11 75.2074C228.243 75.0445 228.435 74.9631 228.687 74.9631H229.197C229.419 74.9631 229.463 75.0593 229.33 75.2518L223.939 82.4708C224.589 82.6189 225.137 82.8929 225.58 83.2927C226.024 83.6777 226.424 84.2182 226.779 84.9142L229.574 90.4451Z" fill="#202020"/>
<path d="M231.146 80.1385C231.146 78.4208 231.664 77.0806 232.7 76.1181C233.735 75.1408 235.214 74.6521 237.137 74.6521C239.045 74.6521 240.509 75.1408 241.53 76.1181C242.565 77.0806 243.083 78.4208 243.083 80.1385V85.5584C243.083 87.2761 242.565 88.6237 241.53 89.601C240.509 90.5635 239.045 91.0448 237.137 91.0448C235.214 91.0448 233.735 90.5635 232.7 89.601C231.664 88.6237 231.146 87.2761 231.146 85.5584V80.1385ZM242.062 80.1385C242.062 78.7022 241.633 77.5915 240.776 76.8067C239.932 76.0071 238.72 75.6072 237.137 75.6072C235.525 75.6072 234.29 76.0071 233.432 76.8067C232.589 77.5915 232.167 78.7022 232.167 80.1385V85.5584C232.167 86.9948 232.589 88.1128 233.432 88.9124C234.29 89.6973 235.525 90.0897 237.137 90.0897C238.72 90.0897 239.932 89.6973 240.776 88.9124C241.633 88.1128 242.062 86.9948 242.062 85.5584V80.1385Z" fill="#202020"/>
<path d="M252.516 74.9631C254.025 74.9631 255.215 75.3925 256.088 76.2514C256.975 77.1103 257.419 78.2949 257.419 79.8054C257.419 81.301 256.975 82.4782 256.088 83.3371C255.215 84.1812 254.025 84.6032 252.516 84.6032H247.28V90.4451C247.28 90.6376 247.191 90.7338 247.014 90.7338H246.548C246.355 90.7338 246.259 90.6376 246.259 90.4451V75.2518C246.259 75.0593 246.355 74.9631 246.548 74.9631H252.516ZM252.427 83.6481C253.64 83.6481 254.594 83.3075 255.289 82.6263C255.999 81.9452 256.354 81.0048 256.354 79.8054C256.354 78.5911 255.999 77.6434 255.289 76.9622C254.594 76.2662 253.64 75.9182 252.427 75.9182H247.28V83.6481H252.427Z" fill="#202020"/>
<path d="M270.784 90.4673C270.858 90.645 270.784 90.7338 270.562 90.7338H270.163C269.867 90.7338 269.704 90.6524 269.675 90.4895L267.7 85.5806H260.334L258.382 90.4895C258.323 90.6524 258.152 90.7338 257.871 90.7338H257.494C257.287 90.7338 257.221 90.645 257.295 90.4673L263.44 75.1186C263.514 74.9409 263.64 74.852 263.817 74.852H264.261C264.454 74.852 264.579 74.9409 264.638 75.1186L270.784 90.4673ZM264.261 76.8289C264.217 76.6956 264.143 76.3773 264.039 75.8738H263.973C263.973 76.1699 263.914 76.4883 263.795 76.8289L260.645 84.7143H267.412L264.261 76.8289Z" fill="#202020"/>
<path d="M280.453 74.9631C280.646 74.9631 280.742 75.0593 280.742 75.2518V75.6517C280.742 75.8294 280.646 75.9182 280.453 75.9182H275.639V90.4451C275.639 90.6376 275.55 90.7338 275.372 90.7338H274.907C274.714 90.7338 274.618 90.6376 274.618 90.4451V75.9182H269.804C269.611 75.9182 269.515 75.8294 269.515 75.6517V75.2518C269.515 75.0593 269.611 74.9631 269.804 74.9631H280.453Z" fill="#202020"/>
<path d="M294.259 74.9631C294.451 74.9631 294.547 75.0593 294.547 75.2518V90.4451C294.547 90.6376 294.451 90.7338 294.259 90.7338H293.793C293.6 90.7338 293.504 90.6376 293.504 90.4451V80.6272C293.504 79.3685 293.563 77.9469 293.682 76.3625H293.637C293.001 77.4286 292.188 78.6799 291.197 80.1163L283.919 90.5561C283.846 90.6746 283.735 90.7338 283.587 90.7338H283.143C282.951 90.7338 282.854 90.6376 282.854 90.4451V75.2518C282.854 75.0593 282.951 74.9631 283.143 74.9631H283.609C283.786 74.9631 283.875 75.0593 283.875 75.2518V84.7809C283.875 86.5727 283.823 88.0906 283.72 89.3345H283.764C284.282 88.4608 285.162 87.1058 286.404 85.2696L293.482 75.1186C293.556 75.0149 293.66 74.9631 293.793 74.9631H294.259Z" fill="#202020"/>
<path d="M304.784 74.9631C306.115 74.9631 307.143 75.3037 307.868 75.9848C308.593 76.666 308.955 77.6508 308.955 78.9391C308.955 80.8197 308.186 82.034 306.648 82.5819V82.6263C308.541 83.041 309.488 84.3441 309.488 86.5357C309.488 87.8684 309.096 88.905 308.312 89.6454C307.528 90.371 306.448 90.7338 305.073 90.7338H298.483C298.291 90.7338 298.195 90.6376 298.195 90.4451V75.2518C298.195 75.0593 298.291 74.9631 298.483 74.9631H304.784ZM307.913 79.0501C307.913 78.0284 307.631 77.2509 307.069 76.7178C306.522 76.1848 305.723 75.9182 304.673 75.9182H299.215V82.2265H304.673C305.709 82.2265 306.507 81.96 307.069 81.4269C307.631 80.8938 307.913 80.1015 307.913 79.0501ZM308.423 86.4469C308.423 85.3807 308.127 84.5662 307.535 84.0035C306.958 83.4408 306.123 83.1594 305.028 83.1594H299.215V89.7787H305.028C306.123 89.7787 306.958 89.4973 307.535 88.9346C308.127 88.3571 308.423 87.5279 308.423 86.4469Z" fill="#202020"/>
<path d="M323.524 74.9631C323.717 74.9631 323.813 75.0593 323.813 75.2518V90.4451C323.813 90.6376 323.717 90.7338 323.524 90.7338H323.058C322.881 90.7338 322.792 90.6376 322.792 90.4451V83.2261H313.407V90.4451C313.407 90.6376 313.318 90.7338 313.141 90.7338H312.675C312.483 90.7338 312.386 90.6376 312.386 90.4451V75.2518C312.386 75.0593 312.483 74.9631 312.675 74.9631H313.141C313.318 74.9631 313.407 75.0593 313.407 75.2518V82.2709H322.792V75.2518C322.792 75.0593 322.881 74.9631 323.058 74.9631H323.524Z" fill="#202020"/>
<path d="M339.381 90.4673C339.455 90.645 339.381 90.7338 339.16 90.7338H338.76C338.464 90.7338 338.302 90.6524 338.272 90.4895L336.297 85.5806H328.931L326.979 90.4895C326.92 90.6524 326.75 90.7338 326.469 90.7338H326.091C325.884 90.7338 325.818 90.645 325.892 90.4673L332.038 75.1186C332.112 74.9409 332.237 74.852 332.415 74.852H332.858C333.051 74.852 333.177 74.9409 333.236 75.1186L339.381 90.4673ZM332.858 76.8289C332.814 76.6956 332.74 76.3773 332.637 75.8738H332.57C332.57 76.1699 332.511 76.4883 332.393 76.8289L329.242 84.7143H336.009L332.858 76.8289Z" fill="#202020"/>
<path d="M340.842 79.4055C340.842 77.9988 341.241 76.9104 342.04 76.1403C342.839 75.3555 343.941 74.9631 345.346 74.9631H351.714C351.906 74.9631 352.002 75.0593 352.002 75.2518V90.4451C352.002 90.6376 351.906 90.7338 351.714 90.7338H351.248C351.07 90.7338 350.982 90.6376 350.982 90.4451V83.8036H347.232C346.315 83.8036 345.605 83.9665 345.102 84.2923C344.614 84.6032 344.185 85.1437 343.815 85.9138L341.685 90.4895C341.596 90.6524 341.412 90.7338 341.131 90.7338H340.687C340.48 90.7338 340.428 90.6376 340.532 90.4451L342.883 85.5139C343.312 84.5958 343.867 83.9887 344.547 83.6925C343.364 83.5592 342.447 83.1298 341.796 82.4042C341.16 81.6638 340.842 80.6642 340.842 79.4055ZM345.457 75.9182C344.333 75.9182 343.46 76.2218 342.839 76.8289C342.218 77.436 341.907 78.2949 341.907 79.4055C341.907 80.5013 342.218 81.3528 342.839 81.96C343.46 82.5523 344.333 82.8485 345.457 82.8485H350.982V75.9182H345.457Z" fill="#202020"/>
<path d="M372.055 74.9631C372.232 74.9631 372.321 75.0593 372.321 75.2518V90.4451C372.321 90.6376 372.232 90.7338 372.055 90.7338H371.589C371.397 90.7338 371.301 90.6376 371.301 90.4451V75.9182H362.071V90.4451C362.071 90.6376 361.982 90.7338 361.805 90.7338H361.339C361.146 90.7338 361.05 90.6376 361.05 90.4451V75.2518C361.05 75.0593 361.146 74.9631 361.339 74.9631H372.055Z" fill="#202020"/>
<path d="M385.298 74.9631C385.49 74.9631 385.586 75.0593 385.586 75.2518V75.6517C385.586 75.8294 385.49 75.9182 385.298 75.9182H376.978V82.2709H384.344C384.521 82.2709 384.61 82.3598 384.61 82.5375V82.9373C384.61 83.1298 384.521 83.2261 384.344 83.2261H376.978V89.7787H385.608C385.801 89.7787 385.897 89.8676 385.897 90.0453V90.4451C385.897 90.6376 385.801 90.7338 385.608 90.7338H376.245C376.053 90.7338 375.957 90.6376 375.957 90.4451V75.2518C375.957 75.0593 376.053 74.9631 376.245 74.9631H385.298Z" fill="#202020"/>
<path d="M398.506 74.9631C398.698 74.9631 398.794 75.0593 398.794 75.2518V90.4451C398.794 90.6376 398.698 90.7338 398.506 90.7338H398.04C397.848 90.7338 397.751 90.6376 397.751 90.4451V84.2034C396.45 84.5292 394.949 84.6921 393.248 84.6921C391.28 84.6921 389.868 84.2404 389.01 83.3371C388.152 82.419 387.723 81.0567 387.723 79.2501V75.2518C387.723 75.0593 387.812 74.9631 387.989 74.9631H388.477C388.655 74.9631 388.744 75.0593 388.744 75.2518V79.2501C388.744 80.7753 389.084 81.9081 389.764 82.6485C390.459 83.3741 391.635 83.7369 393.292 83.7369C394.993 83.7369 396.479 83.5667 397.751 83.2261V75.2518C397.751 75.0593 397.848 74.9631 398.04 74.9631H398.506Z" fill="#202020"/>
<path d="M414.37 90.4673C414.444 90.645 414.37 90.7338 414.149 90.7338H413.749C413.453 90.7338 413.291 90.6524 413.261 90.4895L411.286 85.5806H403.92L401.968 90.4895C401.909 90.6524 401.739 90.7338 401.458 90.7338H401.081C400.873 90.7338 400.807 90.645 400.881 90.4673L407.027 75.1186C407.101 74.9409 407.226 74.852 407.404 74.852H407.848C408.04 74.852 408.166 74.9409 408.225 75.1186L414.37 90.4673ZM407.848 76.8289C407.803 76.6956 407.729 76.3773 407.626 75.8738H407.559C407.559 76.1699 407.5 76.4883 407.382 76.8289L404.231 84.7143H410.998L407.848 76.8289Z" fill="#202020"/>
<path d="M424.04 74.9631C424.232 74.9631 424.328 75.0593 424.328 75.2518V75.6517C424.328 75.8294 424.232 75.9182 424.04 75.9182H419.225V90.4451C419.225 90.6376 419.136 90.7338 418.959 90.7338H418.493C418.301 90.7338 418.204 90.6376 418.204 90.4451V75.9182H413.39C413.198 75.9182 413.101 75.8294 413.101 75.6517V75.2518C413.101 75.0593 413.198 74.9631 413.39 74.9631H424.04Z" fill="#202020"/>
<path d="M426.729 90.7338C426.537 90.7338 426.441 90.6376 426.441 90.4451V75.2518C426.441 75.0593 426.537 74.9631 426.729 74.9631H427.195C427.373 74.9631 427.461 75.0593 427.461 75.2518V81.0937H432.698C434.206 81.0937 435.397 81.5231 436.27 82.382C437.157 83.2261 437.601 84.3959 437.601 85.8915C437.601 87.402 437.157 88.5866 436.27 89.4455C435.397 90.3044 434.206 90.7338 432.698 90.7338H426.729ZM427.461 82.0488V89.7787H432.609C433.822 89.7787 434.776 89.4381 435.471 88.7569C436.181 88.061 436.536 87.1058 436.536 85.8915C436.536 84.6921 436.181 83.7518 435.471 83.0706C434.776 82.3894 433.822 82.0488 432.609 82.0488H427.461Z" fill="#202020"/>
<defs>
<linearGradient id="paint0_linear" x1="-3.46898" y1="0.521317" x2="266.022" y2="46.5079" gradientUnits="userSpaceOnUse">
<stop stop-color="#B71E5C"/>
<stop offset="1" stop-color="#115A7D"/>
</linearGradient>
<linearGradient id="paint1_linear" x1="-3.46898" y1="0.521317" x2="266.022" y2="46.5079" gradientUnits="userSpaceOnUse">
<stop stop-color="#B71E5C"/>
<stop offset="1" stop-color="#115A7D"/>
</linearGradient>
<linearGradient id="paint2_linear" x1="-3.46898" y1="0.521317" x2="266.022" y2="46.5079" gradientUnits="userSpaceOnUse">
<stop stop-color="#B71E5C"/>
<stop offset="1" stop-color="#115A7D"/>
</linearGradient>
<linearGradient id="paint3_linear" x1="-3.46898" y1="0.521317" x2="266.022" y2="46.5079" gradientUnits="userSpaceOnUse">
<stop stop-color="#B71E5C"/>
<stop offset="1" stop-color="#115A7D"/>
</linearGradient>
<linearGradient id="paint4_linear" x1="-3.46898" y1="0.521317" x2="266.022" y2="46.5079" gradientUnits="userSpaceOnUse">
<stop stop-color="#B71E5C"/>
<stop offset="1" stop-color="#115A7D"/>
</linearGradient>
<linearGradient id="paint5_linear" x1="-3.46898" y1="0.521317" x2="266.022" y2="46.5079" gradientUnits="userSpaceOnUse">
<stop stop-color="#B71E5C"/>
<stop offset="1" stop-color="#115A7D"/>
</linearGradient>
</defs>
</svg>
