<svg width="249" height="27" viewBox="0 0 249 27" fill="none" xmlns="http://www.w3.org/2000/svg">
<path d="M161.499 0C164.073 0 166.105 0.735211 167.594 2.20563C169.109 3.67606 169.866 5.70423 169.866 8.29014C169.866 10.8507 169.109 12.8662 167.594 14.3366C166.105 15.7817 164.073 16.5042 161.499 16.5042H152.564V26.5056C152.564 26.8352 152.413 27 152.11 27H151.315C150.987 27 150.823 26.8352 150.823 26.5056V0.494367C150.823 0.164789 150.987 0 151.315 0H161.499ZM161.348 14.869C163.417 14.869 165.045 14.2859 166.231 13.1197C167.443 11.9535 168.049 10.3437 168.049 8.29014C168.049 6.21127 167.443 4.58873 166.231 3.42254C165.045 2.23099 163.417 1.63521 161.348 1.63521H152.564V14.869H161.348Z" fill="black"/>
<path d="M185.583 0C187.981 0 189.861 0.671831 191.224 2.01549C192.587 3.3338 193.269 5.19718 193.269 7.60563C193.269 9.76056 192.676 11.4845 191.489 12.7775C190.303 14.0451 188.675 14.7676 186.606 14.9451C187.842 15.4775 188.877 16.5169 189.71 18.0634L193.95 26.5056C194.177 26.8352 194.089 27 193.685 27H192.966C192.461 27 192.146 26.8606 192.019 26.5817L188.082 18.7479C187.426 17.4549 186.669 16.5296 185.811 15.9718C184.952 15.4141 183.754 15.1352 182.214 15.1352H175.967V26.5056C175.967 26.8352 175.816 27 175.513 27H174.718C174.39 27 174.226 26.8352 174.226 26.5056V0.494367C174.226 0.164789 174.39 0 174.718 0H185.583ZM191.452 7.60563C191.452 5.70423 190.921 4.2338 189.861 3.19437C188.801 2.15493 187.312 1.63521 185.394 1.63521H175.967V13.5H185.394C187.312 13.5 188.801 12.993 189.861 11.9789C190.921 10.9394 191.452 9.48169 191.452 7.60563Z" fill="black"/>
<path d="M198.442 0.494367C198.442 0.164789 198.606 0 198.934 0H199.729C200.032 0 200.184 0.164789 200.184 0.494367V26.5056C200.184 26.8352 200.032 27 199.729 27H198.934C198.606 27 198.442 26.8352 198.442 26.5056V0.494367Z" fill="black"/>
<path d="M225.775 0C226.077 0 226.229 0.164789 226.229 0.494367V26.5056C226.229 26.8352 226.077 27 225.775 27H224.98C224.752 27 224.576 26.8986 224.45 26.6958L211.01 7.45352C210.555 6.81972 209.987 5.91972 209.306 4.75352C208.65 3.58732 208.196 2.83944 207.943 2.50986H207.867C207.867 2.91549 207.905 3.84085 207.981 5.28592C208.057 6.73099 208.095 7.89718 208.095 8.78451V26.5056C208.095 26.8352 207.943 27 207.64 27H206.883C206.555 27 206.391 26.8352 206.391 26.5056V0.494367C206.391 0.164789 206.555 0 206.883 0H207.64C207.867 0 208.044 0.0887329 208.17 0.266198L221.232 19.0141C221.736 19.7239 222.367 20.7127 223.124 21.9803C223.907 23.2479 224.437 24.0718 224.715 24.4521H224.79C224.79 23.9704 224.74 22.9563 224.639 21.4099C224.563 19.838 224.525 18.5704 224.525 17.607V0.456339C224.525 0.152113 224.689 0 225.017 0H225.775Z" fill="black"/>
<path d="M248.508 0C248.836 0 249 0.164789 249 0.494367V1.17887C249 1.4831 248.836 1.63521 248.508 1.63521H240.293V26.5056C240.293 26.8352 240.141 27 239.838 27H239.043C238.715 27 238.551 26.8352 238.551 26.5056V1.63521H230.336C230.008 1.63521 229.844 1.4831 229.844 1.17887V0.494367C229.844 0.164789 230.008 0 230.336 0H248.508Z" fill="black"/>
<path d="M12.0862 0.547297C15.0667 0.547297 17.441 1.35 19.2091 2.9554C20.9772 4.56081 21.8613 6.79865 21.8613 9.66892C21.8613 12.5149 20.9899 14.7284 19.247 16.3095C17.5042 17.8905 15.1425 18.6811 12.162 18.6811H7.50179V24.9203C7.50179 25.4797 7.38813 25.8811 7.1608 26.1243C6.93347 26.3432 6.51671 26.4527 5.9105 26.4527H1.62918C1.02297 26.4527 0.593576 26.3432 0.340991 26.1243C0.113664 25.8811 0 25.4797 0 24.9203V2.07973C0 1.52027 0.113664 1.13108 0.340991 0.912162C0.593576 0.668919 1.02297 0.547297 1.62918 0.547297H12.0862ZM11.2527 12.2959C12.1367 12.2959 12.8313 12.0527 13.3365 11.5662C13.8417 11.0797 14.0943 10.4351 14.0943 9.63243C14.0943 8.82973 13.8417 8.18514 13.3365 7.69865C12.8313 7.18784 12.1367 6.93243 11.2527 6.93243H7.50179V12.2959H11.2527Z" fill="url(#paint0_linear)"/>
<path d="M36.9581 0.547297C39.8628 0.547297 42.1614 1.31351 43.8537 2.84595C45.546 4.37838 46.3922 6.54324 46.3922 9.34054C46.3922 12.8919 45.0282 15.3973 42.3003 16.8568C42.7044 17.3432 43.0454 17.8662 43.3233 18.4257L46.7332 24.6649C47.011 25.1514 47.0615 25.577 46.8847 25.9419C46.7332 26.2824 46.3543 26.4527 45.7481 26.4527H41.6562C40.6711 26.4527 39.9134 26.3311 39.3829 26.0878C38.8778 25.8203 38.4736 25.3581 38.1705 24.7014L35.7457 19.7027C35.3921 19.0459 35.0132 18.5716 34.6091 18.2797C34.2049 17.9878 33.6366 17.8419 32.9041 17.8419H32.0327V24.9203C32.0327 25.4797 31.919 25.8811 31.6917 26.1243C31.4644 26.3432 31.0476 26.4527 30.4414 26.4527H26.1601C25.5539 26.4527 25.1245 26.3432 24.8719 26.1243C24.6446 25.8811 24.5309 25.4797 24.5309 24.9203V2.07973C24.5309 1.52027 24.6446 1.13108 24.8719 0.912162C25.1245 0.668919 25.5539 0.547297 26.1601 0.547297H36.9581ZM38.6252 9.30405C38.6252 8.57433 38.4105 8.0027 37.9811 7.58919C37.5517 7.15135 36.9328 6.93243 36.1246 6.93243H32.0327V11.7486H36.1246C36.9076 11.7486 37.5138 11.5297 37.9432 11.0919C38.3978 10.6541 38.6252 10.0581 38.6252 9.30405Z" fill="url(#paint1_linear)"/>
<path d="M49.5798 2.00676C49.5798 1.47162 49.6934 1.09459 49.9208 0.875675C50.1481 0.656756 50.5396 0.547297 51.0953 0.547297H55.5661C56.1217 0.547297 56.5133 0.656756 56.7406 0.875675C56.9679 1.09459 57.0816 1.47162 57.0816 2.00676V24.9932C57.0816 25.5284 56.9679 25.9054 56.7406 26.1243C56.5133 26.3432 56.1217 26.4527 55.5661 26.4527H51.0953C50.5396 26.4527 50.1481 26.3432 49.9208 26.1243C49.6934 25.9054 49.5798 25.5284 49.5798 24.9932V2.00676Z" fill="url(#paint2_linear)"/>
<path d="M60.0682 8.17297C60.0682 5.71622 61.0533 3.74595 63.0234 2.26216C65.0189 0.754054 67.7847 0 71.3209 0C74.0993 0 76.3347 0.413513 78.027 1.24054C79.7194 2.06757 81.0075 3.35676 81.8916 5.10811C82.3715 6.05676 82.0684 6.73784 80.9823 7.15135L77.1935 8.72027C76.6883 8.93919 76.2968 9 76.019 8.9027C75.7411 8.80541 75.4507 8.48919 75.1476 7.95405C74.4908 6.68919 73.2153 6.05676 71.3209 6.05676C68.9213 6.05676 67.7215 6.68919 67.7215 7.95405C67.7215 8.65946 68.1257 9.15811 68.9339 9.45C69.7422 9.74189 70.9925 9.98514 72.6848 10.1797C73.7962 10.3257 74.7182 10.4716 75.4507 10.6176C76.1832 10.7635 77.0546 11.0432 78.0649 11.4568C79.1005 11.8459 79.9214 12.3203 80.5276 12.8797C81.1338 13.4392 81.6516 14.2176 82.081 15.2149C82.5357 16.2122 82.763 17.3676 82.763 18.6811C82.763 21.2838 81.6643 23.327 79.4668 24.8108C77.2945 26.2703 74.4782 27 71.0178 27C65.1073 27 61.4322 25.1149 59.9924 21.3446C59.7903 20.7851 59.7651 20.3595 59.9166 20.0676C60.0935 19.7757 60.4597 19.5324 61.0154 19.3378L64.5768 18.0973C65.1325 17.9027 65.5746 17.8662 65.9029 17.9878C66.2313 18.0851 66.5344 18.3892 66.8122 18.9C67.4942 20.1892 68.9213 20.8338 71.0936 20.8338C73.7962 20.8338 75.1476 20.1405 75.1476 18.7541C75.1476 18.0973 74.7813 17.623 74.0488 17.3311C73.3163 17.0392 72.2049 16.7959 70.7147 16.6014C70.0074 16.5041 69.4896 16.4311 69.1613 16.3824C68.8329 16.3338 68.3151 16.2486 67.6079 16.127C66.9006 15.9811 66.3449 15.8473 65.9408 15.7257C65.5619 15.6041 65.0694 15.4216 64.4632 15.1784C63.857 14.9351 63.3771 14.6797 63.0234 14.4122C62.6698 14.1446 62.2783 13.8041 61.8489 13.3905C61.4195 12.977 61.0912 12.527 60.8638 12.0405C60.6618 11.5297 60.4723 10.9581 60.2955 10.3257C60.144 9.66892 60.0682 8.95135 60.0682 8.17297Z" fill="url(#paint3_linear)"/>
<path d="M111.272 0.510811C111.878 0.510811 112.295 0.620271 112.522 0.83919C112.775 1.05811 112.901 1.45946 112.901 2.04324V24.9568C112.901 25.5162 112.775 25.9054 112.522 26.1243C112.295 26.3432 111.878 26.4527 111.272 26.4527H107.142C106.536 26.4527 106.119 26.3432 105.892 26.1243C105.665 25.9054 105.551 25.5162 105.551 24.9568V19.7392C105.551 17.1122 106.107 13.9257 107.218 10.1797H106.801C106.599 10.8122 106.22 11.7973 105.665 13.1351C105.109 14.473 104.642 15.4946 104.263 16.2L102.141 20.323C101.914 20.7122 101.674 20.9919 101.421 21.1622C101.169 21.3081 100.802 21.3811 100.323 21.3811H97.784C97.2789 21.3811 96.9 21.3081 96.6474 21.1622C96.3948 21.0162 96.1675 20.7365 95.9654 20.323L93.73 16.2C92.947 14.8378 92.164 12.8311 91.381 10.1797H91.0021C92.0377 14.1689 92.5555 17.3676 92.5555 19.7757V24.9568C92.5555 25.5162 92.4292 25.9054 92.1767 26.1243C91.9493 26.3432 91.5326 26.4527 90.9263 26.4527H87.0618C86.4556 26.4527 86.0262 26.3432 85.7736 26.1243C85.5463 25.9054 85.4326 25.5162 85.4326 24.9568V2.04324C85.4326 1.45946 85.5463 1.05811 85.7736 0.83919C86.0262 0.620271 86.4556 0.510811 87.0618 0.510811H90.6233C91.28 0.510811 91.7473 0.583784 92.0251 0.729729C92.3029 0.875675 92.5808 1.17973 92.8586 1.64189L99.1101 13.4635L105.362 1.67838C105.614 1.19189 105.867 0.875675 106.119 0.729729C106.397 0.583784 106.852 0.510811 107.483 0.510811H111.272Z" fill="url(#paint4_linear)"/>
<path d="M140.718 24.9568C141.097 25.9541 140.731 26.4527 139.62 26.4527H135.528C134.568 26.4527 133.886 26.3432 133.482 26.1243C133.103 25.9054 132.838 25.5041 132.686 24.9203L131.815 22.2932H123.631L122.76 24.9203C122.557 25.5041 122.267 25.9054 121.888 26.1243C121.534 26.3432 120.903 26.4527 119.994 26.4527H116.015C114.955 26.4527 114.614 25.9541 114.993 24.9568L123.707 1.82432C123.884 1.31351 124.111 0.972973 124.389 0.802704C124.667 0.632433 125.096 0.547297 125.677 0.547297H129.996C130.552 0.547297 130.969 0.632433 131.246 0.802704C131.55 0.972973 131.789 1.28919 131.966 1.75135L140.718 24.9568ZM128.708 12.2959C128.481 11.5662 128.291 10.7757 128.14 9.92432C128.013 9.07297 127.938 8.40405 127.912 7.91757L127.874 7.18784H127.496C127.521 8.93919 127.281 10.6297 126.776 12.2595L125.374 16.5649H130.11L128.708 12.2959Z" fill="url(#paint5_linear)"/>
<defs>
<linearGradient id="paint0_linear" x1="-1.89439" y1="0.105209" x2="144.947" y2="26.155" gradientUnits="userSpaceOnUse">
<stop stop-color="#B71E5C"/>
<stop offset="1" stop-color="#115A7D"/>
</linearGradient>
<linearGradient id="paint1_linear" x1="-1.89439" y1="0.105209" x2="144.947" y2="26.155" gradientUnits="userSpaceOnUse">
<stop stop-color="#B71E5C"/>
<stop offset="1" stop-color="#115A7D"/>
</linearGradient>
<linearGradient id="paint2_linear" x1="-1.89439" y1="0.105209" x2="144.947" y2="26.155" gradientUnits="userSpaceOnUse">
<stop stop-color="#B71E5C"/>
<stop offset="1" stop-color="#115A7D"/>
</linearGradient>
<linearGradient id="paint3_linear" x1="-1.89439" y1="0.105209" x2="144.947" y2="26.155" gradientUnits="userSpaceOnUse">
<stop stop-color="#B71E5C"/>
<stop offset="1" stop-color="#115A7D"/>
</linearGradient>
<linearGradient id="paint4_linear" x1="-1.89439" y1="0.105209" x2="144.947" y2="26.155" gradientUnits="userSpaceOnUse">
<stop stop-color="#B71E5C"/>
<stop offset="1" stop-color="#115A7D"/>
</linearGradient>
<linearGradient id="paint5_linear" x1="-1.89439" y1="0.105209" x2="144.947" y2="26.155" gradientUnits="userSpaceOnUse">
<stop stop-color="#B71E5C"/>
<stop offset="1" stop-color="#115A7D"/>
</linearGradient>
</defs>
</svg>
