<svg width="345" height="37" viewBox="0 0 345 37" fill="none" xmlns="http://www.w3.org/2000/svg">
<g opacity="0.5">
<path opacity="0.7" fill-rule="evenodd" clip-rule="evenodd" d="M7.80249 20.1991V0.1875H8.60295V20.1991H7.80249Z" fill="#961E50"/>
<path opacity="0.4" fill-rule="evenodd" clip-rule="evenodd" d="M26.2131 12.1945V0.1875H27.0136V12.1945H26.2131Z" fill="#961E50"/>
<path opacity="0.4" fill-rule="evenodd" clip-rule="evenodd" d="M46.2249 12.1945V0.1875H47.0253V12.1945H46.2249Z" fill="#961E50"/>
<path opacity="0.4" fill-rule="evenodd" clip-rule="evenodd" d="M66.2363 12.1945V0.1875H67.0368V12.1945H66.2363Z" fill="#961E50"/>
<path opacity="0.4" fill-rule="evenodd" clip-rule="evenodd" d="M86.2478 12.1945V0.1875H87.0483V12.1945H86.2478Z" fill="#961E50"/>
<path opacity="0.4" fill-rule="evenodd" clip-rule="evenodd" d="M106.26 12.1945V0.1875H107.06V12.1945H106.26Z" fill="#961E50"/>
<path opacity="0.4" fill-rule="evenodd" clip-rule="evenodd" d="M126.271 12.1945V0.1875H127.072V12.1945H126.271Z" fill="#961E50"/>
<path opacity="0.4" fill-rule="evenodd" clip-rule="evenodd" d="M146.283 12.1945V0.1875H147.083V12.1945H146.283Z" fill="#961E50"/>
<path opacity="0.7" fill-rule="evenodd" clip-rule="evenodd" d="M185 20.0116V0L185.8 0V20.0116H185Z" fill="#961E50"/>
<path opacity="0.7" fill-rule="evenodd" clip-rule="evenodd" d="M341.596 20.1991V0.1875H342.396V20.1991H341.596Z" fill="#961E50"/>
<path opacity="0.4" fill-rule="evenodd" clip-rule="evenodd" d="M165 12.007V0L165.8 0V12.007H165Z" fill="#961E50"/>
<path opacity="0.4" fill-rule="evenodd" clip-rule="evenodd" d="M204.717 12.1945V0.1875H205.517V12.1945H204.717Z" fill="#961E50"/>
<path opacity="0.4" fill-rule="evenodd" clip-rule="evenodd" d="M224.728 12.1945V0.1875H225.528V12.1945H224.728Z" fill="#961E50"/>
<path opacity="0.4" fill-rule="evenodd" clip-rule="evenodd" d="M244.74 12.1945V0.1875H245.54V12.1945H244.74Z" fill="#961E50"/>
<path opacity="0.4" fill-rule="evenodd" clip-rule="evenodd" d="M264.751 12.1945V0.1875H265.552V12.1945H264.751Z" fill="#961E50"/>
<path opacity="0.4" fill-rule="evenodd" clip-rule="evenodd" d="M284.763 12.1945V0.1875H285.563V12.1945H284.763Z" fill="#961E50"/>
<path opacity="0.4" fill-rule="evenodd" clip-rule="evenodd" d="M304.775 12.1945V0.1875H305.575V12.1945H304.775Z" fill="#961E50"/>
<path opacity="0.4" fill-rule="evenodd" clip-rule="evenodd" d="M324.786 12.1945V0.1875H325.587V12.1945H324.786Z" fill="#961E50"/>
</g>
<path d="M8.49009 32.073C7.72476 33.053 6.72609 33.543 5.49409 33.543C4.26209 33.543 3.26343 33.0577 2.49809 32.087C1.74209 31.107 1.36409 29.903 1.36409 28.475C1.36409 27.0657 1.74676 25.871 2.51209 24.891C3.28676 23.9017 4.29009 23.407 5.52209 23.407C6.75409 23.407 7.74809 23.897 8.50409 24.877C9.26009 25.8477 9.63809 27.047 9.63809 28.475C9.63809 29.8843 9.25543 31.0837 8.49009 32.073ZM3.35209 31.345C3.91209 32.1383 4.63543 32.535 5.52209 32.535C6.40876 32.535 7.12276 32.143 7.66409 31.359C8.21476 30.5657 8.49009 29.6043 8.49009 28.475C8.49009 27.3643 8.21009 26.4123 7.65009 25.619C7.09943 24.8163 6.38076 24.415 5.49409 24.415C4.60743 24.415 3.88876 24.8117 3.33809 25.605C2.78743 26.389 2.51209 27.3457 2.51209 28.475C2.51209 29.5857 2.79209 30.5423 3.35209 31.345Z" fill="#DBB1C2"/>
<path d="M184.997 33V24.278L183.149 24.852L182.883 23.956L185.277 23.13H186.089V33H184.997Z" fill="#DBB1C2"/>
<path d="M321.586 33.375V24.653L319.738 25.227L319.472 24.331L321.866 23.505H322.678V33.375H321.586ZM324.91 35.083L324.742 34.593C325.367 34.3597 325.68 34.0003 325.68 33.515V33.375H325.176V31.905H326.464V33.165C326.464 33.725 326.338 34.1543 326.086 34.453C325.843 34.7517 325.451 34.9617 324.91 35.083ZM334.571 32.745C333.871 33.2583 332.994 33.515 331.939 33.515C330.885 33.515 330.007 33.2537 329.307 32.731C328.607 32.2083 328.257 31.5363 328.257 30.715C328.257 30.155 328.439 29.6697 328.803 29.259C329.167 28.8483 329.657 28.531 330.273 28.307C329.153 27.7937 328.593 27.033 328.593 26.025C328.593 25.2877 328.92 24.6717 329.573 24.177C330.236 23.6823 331.025 23.435 331.939 23.435C332.854 23.435 333.638 23.6823 334.291 24.177C334.954 24.6717 335.285 25.297 335.285 26.053C335.285 27.0423 334.725 27.7937 333.605 28.307C334.949 28.811 335.621 29.6183 335.621 30.729C335.621 31.5503 335.271 32.2223 334.571 32.745ZM330.343 27.411C330.773 27.747 331.305 27.915 331.939 27.915C332.574 27.915 333.106 27.747 333.535 27.411C333.965 27.075 334.179 26.6363 334.179 26.095C334.179 25.6097 333.965 25.2083 333.535 24.891C333.106 24.5643 332.574 24.401 331.939 24.401C331.295 24.401 330.759 24.5643 330.329 24.891C329.909 25.2083 329.699 25.619 329.699 26.123C329.699 26.6457 329.914 27.075 330.343 27.411ZM330.063 32.017C330.53 32.3717 331.155 32.549 331.939 32.549C332.723 32.549 333.344 32.3717 333.801 32.017C334.268 31.6623 334.501 31.219 334.501 30.687C334.501 30.1457 334.254 29.7023 333.759 29.357C333.265 29.0023 332.658 28.825 331.939 28.825C331.211 28.825 330.6 29.0023 330.105 29.357C329.62 29.7117 329.377 30.1643 329.377 30.715C329.377 31.2283 329.606 31.6623 330.063 32.017ZM340.59 33.543C339.292 33.543 338.126 33.025 337.09 31.989L337.818 31.191C338.742 32.087 339.67 32.535 340.604 32.535C341.304 32.535 341.873 32.3297 342.312 31.919C342.75 31.5083 342.97 30.981 342.97 30.337C342.97 29.7303 342.741 29.2357 342.284 28.853C341.836 28.4703 341.252 28.279 340.534 28.279C339.862 28.279 339.176 28.4657 338.476 28.839L337.734 28.349L338.014 23.575H343.656V24.597H338.98L338.77 27.733C339.432 27.4437 340.076 27.299 340.702 27.299C341.682 27.299 342.489 27.5743 343.124 28.125C343.768 28.6663 344.09 29.399 344.09 30.323C344.09 31.275 343.763 32.0497 343.11 32.647C342.456 33.2443 341.616 33.543 340.59 33.543Z" fill="#DBB1C2"/>
</svg>
